<svg xmlns="http://www.w3.org/2000/svg" width="512px" height="512px" style="shape-rendering:geometricPrecision; text-rendering:geometricPrecision; image-rendering:optimizeQuality; fill-rule:evenodd; clip-rule:evenodd" xmlns:xlink="http://www.w3.org/1999/xlink">
<g><path style="opacity:0.967" fill="#010101" d="M 120.5,-0.5 C 123.167,-0.5 125.833,-0.5 128.5,-0.5C 158.837,12.5015 190.504,20.6682 223.5,24C 252.225,31.7245 271.725,49.5579 282,77.5C 288.774,106.845 280.608,131.012 257.5,150C 234.345,156.432 211.012,157.432 187.5,153C 153.693,143.193 131.86,121.36 122,87.5C 114.177,59.5105 112.51,31.1772 117,2.5C 118.145,1.36362 119.312,0.363622 120.5,-0.5 Z"/></g>
<g><path style="opacity:1" fill="#93c38e" d="M 130.5,18.5 C 160.103,30.4009 190.77,37.9009 222.5,41C 248.296,48.795 263.463,65.9616 268,92.5C 268.724,107.996 263.724,121.329 253,132.5C 230.536,107.034 207.703,81.8676 184.5,57C 180.001,54.6335 176.168,55.4668 173,59.5C 172.21,62.634 172.543,65.634 174,68.5C 194.482,91.9497 215.315,115.116 236.5,138C 179.676,146.357 145.51,122.523 134,66.5C 131.069,50.6339 129.902,34.6339 130.5,18.5 Z"/></g>
<g><path style="opacity:0.965" fill="#010101" d="M 366.5,103.5 C 374.893,103.17 383.227,103.67 391.5,105C 393.667,105.833 395.167,107.333 396,109.5C 392.435,135.026 389.769,160.692 388,186.5C 383.746,205.498 372.579,218.665 354.5,226C 340.056,231.873 325.056,234.206 309.5,233C 290.395,228.225 279.229,216.058 276,196.5C 271.401,165.593 281.901,141.426 307.5,124C 326.093,113.686 345.759,106.852 366.5,103.5 Z"/></g>
<g><path style="opacity:1" fill="#879a67" d="M 367.5,119.5 C 371.167,119.5 374.833,119.5 378.5,119.5C 374.468,140.286 372.302,161.286 372,182.5C 368.231,196.188 359.731,205.688 346.5,211C 335.23,215.301 323.563,217.134 311.5,216.5C 321.311,200.24 332.145,184.574 344,169.5C 346.03,166.774 347.53,163.774 348.5,160.5C 346.503,153.501 342.17,151.335 335.5,154C 322.612,171.222 310.112,188.722 298,206.5C 284.98,176.892 292.146,153.392 319.5,136C 334.758,127.971 350.758,122.471 367.5,119.5 Z"/></g>
<g><path style="opacity:0.991" fill="#000000" d="M 54.5,511.5 C 49.8333,511.5 45.1667,511.5 40.5,511.5C 32.5191,508.351 27.0191,502.684 24,494.5C 23.5,427.834 23.3333,361.167 23.5,294.5C 10.9114,291.577 2.91142,283.911 -0.5,271.5C -0.5,240.833 -0.5,210.167 -0.5,179.5C 3.36733,175.258 8.034,174.425 13.5,177C 14.1258,177.75 14.6258,178.584 15,179.5C 15.4999,196.83 15.6666,214.163 15.5,231.5C 23.5,231.5 31.5,231.5 39.5,231.5C 39.3334,214.163 39.5001,196.83 40,179.5C 41.5286,176.484 44.0286,175.151 47.5,175.5C 50.9714,175.151 53.4714,176.484 55,179.5C 55.4999,196.83 55.6666,214.163 55.5,231.5C 63.5,231.5 71.5,231.5 79.5,231.5C 79.3334,214.163 79.5001,196.83 80,179.5C 81.5286,176.484 84.0286,175.151 87.5,175.5C 90.9714,175.151 93.4714,176.484 95,179.5C 95.6667,210.167 95.6667,240.833 95,271.5C 91.9068,284.094 84.0735,291.761 71.5,294.5C 71.6667,361.167 71.5,427.834 71,494.5C 67.9809,502.684 62.4809,508.351 54.5,511.5 Z"/></g>
<g><path style="opacity:0.982" fill="#000000" d="M 511.5,226.5 C 511.5,235.833 511.5,245.167 511.5,254.5C 507.848,270.46 500.015,284.126 488,295.5C 487.667,361.833 487.333,428.167 487,494.5C 483.981,502.684 478.481,508.351 470.5,511.5C 465.833,511.5 461.167,511.5 456.5,511.5C 448.519,508.351 443.019,502.684 440,494.5C 439.667,428.167 439.333,361.833 439,295.5C 417.742,274.715 410.409,249.715 417,220.5C 420.53,205.604 428.03,193.104 439.5,183C 461.912,170.054 481.412,173.554 498,193.5C 504.759,203.67 509.259,214.67 511.5,226.5 Z"/></g>
<g><path style="opacity:0.951" fill="#000000" d="M 229.5,190.5 C 232.675,190.503 235.508,191.503 238,193.5C 243.333,201.5 248.667,209.5 254,217.5C 256.832,223.446 255.665,228.279 250.5,232C 237.5,239.667 224.5,247.333 211.5,255C 205.521,256.928 201.354,255.095 199,249.5C 196.231,235.486 193.397,221.486 190.5,207.5C 190.846,202.991 193.179,200.157 197.5,199C 208.37,196.451 219.037,193.618 229.5,190.5 Z"/></g>
<g><path style="opacity:1" fill="#f4eee3" d="M 458.5,191.5 C 468.963,190.649 477.463,194.315 484,202.5C 496.978,222.706 498.978,244.039 490,266.5C 485.814,275.022 479.814,282.022 472,287.5C 471.667,355.167 471.333,422.833 471,490.5C 467.987,495.535 463.82,496.702 458.5,494C 457.299,493.097 456.465,491.931 456,490.5C 455.667,422.833 455.333,355.167 455,287.5C 438.911,275.653 431.077,259.653 431.5,239.5C 431.235,222.877 436.901,208.711 448.5,197C 451.767,194.87 455.1,193.037 458.5,191.5 Z"/></g>
<g><path style="opacity:1" fill="#8fbe8a" d="M 225.5,208.5 C 226.675,208.281 227.675,208.614 228.5,209.5C 231.083,212.997 233.416,216.664 235.5,220.5C 228.542,225.652 221.208,230.319 213.5,234.5C 211.266,227.329 209.932,219.996 209.5,212.5C 215.094,211.768 220.427,210.435 225.5,208.5 Z"/></g>
<g><path style="opacity:1" fill="#f5efe4" d="M 15.5,247.5 C 36.8333,247.5 58.1667,247.5 79.5,247.5C 79.6663,254.508 79.4996,261.508 79,268.5C 74.7843,276.862 67.9509,281.029 58.5,281C 57.2986,281.903 56.4652,283.069 56,284.5C 55.6667,353.167 55.3333,421.833 55,490.5C 51.9867,495.535 47.8201,496.702 42.5,494C 41.2986,493.097 40.4652,491.931 40,490.5C 39.6667,421.833 39.3333,353.167 39,284.5C 38.5348,283.069 37.7014,281.903 36.5,281C 27.0271,281.019 20.1938,276.853 16,268.5C 15.5004,261.508 15.3337,254.508 15.5,247.5 Z"/></g>
<g><path style="opacity:0.991" fill="#010201" d="M 328.5,283.5 C 330.833,290.166 333.166,296.832 335.5,303.5C 335.444,306.111 334.444,308.278 332.5,310C 315.138,313.755 297.638,316.922 280,319.5C 275.652,319.666 272.985,317.666 272,313.5C 271.5,302.172 271.333,290.838 271.5,279.5C 271.334,272.825 271.5,266.158 272,259.5C 272.374,258.584 272.874,257.75 273.5,257C 287.406,255.369 301.406,255.036 315.5,256C 317.815,257.109 319.315,258.943 320,261.5C 322.938,268.818 325.771,276.151 328.5,283.5 Z"/></g>
<g><path style="opacity:0.978" fill="#020202" d="M 263.5,279.5 C 263.276,283.562 261.276,286.395 257.5,288C 217.714,287.066 178.38,290.733 139.5,299C 126.596,301.745 114.263,306.079 102.5,312C 100.04,313.458 97.8734,315.291 96,317.5C 95.3421,321.025 96.5088,323.859 99.5,326C 118.358,335.73 138.358,342.063 159.5,345C 203.279,351.218 247.279,353.218 291.5,351C 318.44,349.843 345.106,346.51 371.5,341C 385.531,337.769 398.865,332.769 411.5,326C 416.66,322.236 416.66,318.569 411.5,315C 400.154,308.884 388.154,304.551 375.5,302C 364.245,299.569 352.912,297.569 341.5,296C 336.074,293.317 334.407,289.15 336.5,283.5C 338.305,280.597 340.971,279.264 344.5,279.5C 366.048,281.976 387.048,286.809 407.5,294C 415.447,296.885 422.281,301.385 428,307.5C 429.439,309.275 430.439,311.275 431,313.5C 431.747,367.564 415.747,415.898 383,458.5C 354.354,489.906 318.854,507.573 276.5,511.5C 262.5,511.5 248.5,511.5 234.5,511.5C 178.296,505.658 136.13,478.325 108,429.5C 88.7652,393.561 79.4319,355.228 80,314.5C 81.1517,310.513 83.3184,307.18 86.5,304.5C 97.674,295.414 110.341,289.247 124.5,286C 168.536,275.396 213.202,270.73 258.5,272C 262.007,273.33 263.673,275.83 263.5,279.5 Z"/></g>
<g><path style="opacity:1" fill="#f9e77f" d="M 287.5,271.5 C 293.868,271.17 300.202,271.504 306.5,272.5C 309.833,280.5 313.167,288.5 316.5,296.5C 306.923,298.707 297.257,300.374 287.5,301.5C 287.5,291.5 287.5,281.5 287.5,271.5 Z"/></g>
<g><path style="opacity:1" fill="#93c38e" d="M 263.5,279.5 C 266.167,279.5 268.833,279.5 271.5,279.5C 271.333,290.838 271.5,302.172 272,313.5C 272.985,317.666 275.652,319.666 280,319.5C 297.638,316.922 315.138,313.755 332.5,310C 334.444,308.278 335.444,306.111 335.5,303.5C 333.166,296.832 330.833,290.166 328.5,283.5C 331.167,283.5 333.833,283.5 336.5,283.5C 334.407,289.15 336.074,293.317 341.5,296C 352.912,297.569 364.245,299.569 375.5,302C 388.154,304.551 400.154,308.884 411.5,315C 416.66,318.569 416.66,322.236 411.5,326C 398.865,332.769 385.531,337.769 371.5,341C 345.106,346.51 318.44,349.843 291.5,351C 247.279,353.218 203.279,351.218 159.5,345C 138.358,342.063 118.358,335.73 99.5,326C 96.5088,323.859 95.3421,321.025 96,317.5C 97.8734,315.291 100.04,313.458 102.5,312C 114.263,306.079 126.596,301.745 139.5,299C 178.38,290.733 217.714,287.066 257.5,288C 261.276,286.395 263.276,283.562 263.5,279.5 Z"/></g>
<g><path style="opacity:1" fill="#020202" d="M 225.5,295.5 C 245.551,295.052 255.384,304.718 255,324.5C 250.203,338.651 240.369,344.817 225.5,343C 209.851,336.202 204.684,324.702 210,308.5C 213.869,302.452 219.035,298.118 225.5,295.5 Z"/></g>
<g><path style="opacity:1" fill="#d9635c" d="M 228.5,311.5 C 236.658,310.823 240.158,314.49 239,322.5C 236.774,326.861 233.274,328.361 228.5,327C 224.139,324.774 222.639,321.274 224,316.5C 225.025,314.313 226.525,312.646 228.5,311.5 Z"/></g>
<g><path style="opacity:1" fill="#869967" d="M 97.5,342.5 C 115.6,351.032 134.6,356.865 154.5,360C 226.673,370.759 298.673,369.759 370.5,357C 385.524,353.485 399.858,348.985 413.5,343.5C 412.801,349.63 411.468,355.63 409.5,361.5C 382.826,371.917 355.159,378.084 326.5,380C 274.79,384.954 223.123,384.621 171.5,379C 155.628,377.026 139.962,374.026 124.5,370C 116.498,368.055 108.831,365.222 101.5,361.5C 99.3983,355.325 98.065,348.991 97.5,342.5 Z"/></g>
<g><path style="opacity:1" fill="#f4eee3" d="M 105.5,380.5 C 132.809,389.157 160.809,394.657 189.5,397C 248.072,401.555 306.405,399.555 364.5,391C 378.456,387.923 392.122,384.756 405.5,381.5C 377.417,466.909 318.417,504.409 228.5,494C 173.652,485.483 135.485,455.65 114,404.5C 111.057,396.503 108.224,388.503 105.5,380.5 Z"/></g>
<g><path style="opacity:1" fill="#050505" d="M 148.5,407.5 C 152.192,406.971 155.358,407.971 158,410.5C 164.34,428.025 175.507,441.525 191.5,451C 196.443,453.388 201.276,455.888 206,458.5C 209.129,465.575 206.963,469.909 199.5,471.5C 172.17,462.583 153.67,444.583 144,417.5C 143.333,415.833 143.333,414.167 144,412.5C 145.366,410.638 146.866,408.972 148.5,407.5 Z"/></g>
<g><path style="opacity:1" fill="#000000" d="M 215.5,463.5 C 220.833,463.5 226.167,463.5 231.5,463.5C 231.5,468.833 231.5,474.167 231.5,479.5C 226.167,479.5 220.833,479.5 215.5,479.5C 215.5,474.167 215.5,468.833 215.5,463.5 Z"/></g>
</svg>
