<?xml version="1.0" encoding="UTF-8"?>
<!DOCTYPE svg PUBLIC "-//W3C//DTD SVG 1.1//EN" "http://www.w3.org/Graphics/SVG/1.1/DTD/svg11.dtd">
<svg xmlns="http://www.w3.org/2000/svg" version="1.1" width="499px" height="499px" style="shape-rendering:geometricPrecision; text-rendering:geometricPrecision; image-rendering:optimizeQuality; fill-rule:evenodd; clip-rule:evenodd" xmlns:xlink="http://www.w3.org/1999/xlink">
<g><path style="opacity:1" fill="#27578c" d="M 381.5,183.5 C 381.739,187.842 382.073,192.176 382.5,196.5C 382.667,234.168 382.5,271.835 382,309.5C 373.402,361.237 345.235,397.737 297.5,419C 250.838,434.696 207.504,428.362 167.5,400C 142.222,379.259 125.722,353.092 118,321.5C 117.502,318.518 117.335,315.518 117.5,312.5C 116.4,271.843 116.233,231.176 117,190.5C 118.501,182.486 120.001,174.486 121.5,166.5C 130.761,133.739 149.761,108.239 178.5,90C 216.251,68.2287 255.918,64.562 297.5,79C 344.067,98.7501 372.067,133.583 381.5,183.5 Z"/></g>
<g><path style="opacity:1" fill="#f6f9f9" d="M 219.5,123.5 C 218.881,128.668 215.881,131.335 210.5,131.5C 209.106,131.379 207.772,131.046 206.5,130.5C 205.68,136.926 201.68,139.926 194.5,139.5C 194.825,144.382 192.825,147.882 188.5,150C 186.343,150.078 184.343,150.245 182.5,150.5C 184.191,155.302 182.858,159.135 178.5,162C 175.901,162.769 173.401,162.602 171,161.5C 170.167,162.333 169.333,163.167 168.5,164C 171.026,163.368 173.526,163.535 176,164.5C 176.962,169.233 175.462,173.066 171.5,176C 169.833,176.667 168.167,176.667 166.5,176C 162.842,173.169 158.842,171.002 154.5,169.5C 152.235,167.358 149.568,165.691 146.5,164.5C 144.743,156.038 147.076,148.872 153.5,143C 161.994,138.358 168.494,140.191 173,148.5C 175.071,147.475 177.238,146.642 179.5,146C 174.667,141.167 169.833,136.333 165,131.5C 164.333,130.167 164.333,128.833 165,127.5C 166.833,125.667 168.667,123.833 170.5,122C 173.551,121.143 176.217,121.81 178.5,124C 183.306,128.806 188.14,133.64 193,138.5C 189.59,131.027 185.59,123.693 181,116.5C 181.052,111.436 183.719,108.769 189,108.5C 190.561,108.603 192.061,108.937 193.5,109.5C 194.308,102.923 198.308,100.09 205.5,101C 210.394,108.387 215.061,115.887 219.5,123.5 Z"/></g>
<g><path style="opacity:1" fill="#3b343b" d="M 383.5,185.5 C 382.833,184.833 382.167,184.167 381.5,183.5C 372.067,133.583 344.067,98.7501 297.5,79C 255.918,64.562 216.251,68.2287 178.5,90C 149.761,108.239 130.761,133.739 121.5,166.5C 120.313,168.072 119.313,169.739 118.5,171.5C 117.833,172.5 117.167,173.5 116.5,174.5C 126.861,130.971 152.194,99.4714 192.5,80C 258.575,55.3771 314.075,69.8771 359,123.5C 372.436,142.046 380.603,162.713 383.5,185.5 Z"/></g>
<g><path style="opacity:1" fill="#7a8995" d="M 290.5,107.5 C 290.167,108.167 289.833,108.833 289.5,109.5C 285.3,107.866 280.967,107.032 276.5,107C 275.282,108.438 274.615,110.105 274.5,112C 275.156,113.909 275.656,115.742 276,117.5C 273.049,114.157 272.716,110.49 275,106.5C 276.062,105.903 277.228,105.57 278.5,105.5C 282.489,106.298 286.489,106.965 290.5,107.5 Z"/></g>
<g><path style="opacity:1" fill="#8e99a5" d="M 239.5,100.5 C 239.5,100.833 239.5,101.167 239.5,101.5C 235.956,102.31 232.456,103.31 229,104.5C 228.833,104.167 228.667,103.833 228.5,103.5C 231.946,101.722 235.613,100.722 239.5,100.5 Z"/></g>
<g><path style="opacity:1" fill="#f6faf9" d="M 289.5,97.5 C 292.992,100.596 293.325,103.93 290.5,107.5C 286.489,106.965 282.489,106.298 278.5,105.5C 277.228,105.57 276.062,105.903 275,106.5C 272.716,110.49 273.049,114.157 276,117.5C 275.656,115.742 275.156,113.909 274.5,112C 274.615,110.105 275.282,108.438 276.5,107C 280.967,107.032 285.3,107.866 289.5,109.5C 291.722,109.559 292.722,110.725 292.5,113C 290.159,117.003 288.159,121.17 286.5,125.5C 283.734,128.143 280.401,129.143 276.5,128.5C 259.345,123.861 255.178,113.861 264,98.5C 268.574,93.85 274.074,92.35 280.5,94C 283.764,94.6377 286.764,95.8043 289.5,97.5 Z"/></g>
<g><path style="opacity:1" fill="#f7faf9" d="M 239.5,100.5 C 235.613,100.722 231.946,101.722 228.5,103.5C 228.667,103.833 228.833,104.167 229,104.5C 232.456,103.31 235.956,102.31 239.5,101.5C 241.533,102.898 242.533,104.898 242.5,107.5C 242.291,108.994 241.624,110.161 240.5,111C 242.676,111.163 244.509,111.996 246,113.5C 246.667,116.167 246.667,118.833 246,121.5C 241.576,122.766 237.076,123.766 232.5,124.5C 227.959,126.103 223.626,125.77 219.5,123.5C 217.538,114.532 216.038,105.532 215,96.5C 215.5,96 216,95.5 216.5,95C 223.432,93.1802 230.432,91.6802 237.5,90.5C 239.029,90.5288 240.196,91.1955 241,92.5C 241.667,94.8333 241.667,97.1667 241,99.5C 240.617,100.056 240.117,100.389 239.5,100.5 Z"/></g>
<g><path style="opacity:1" fill="#8d969d" d="M 234.5,111.5 C 236.199,111.34 237.866,111.506 239.5,112C 236.187,113.196 232.854,113.863 229.5,114C 231.175,113.015 232.842,112.181 234.5,111.5 Z"/></g>
<g><path style="opacity:1" fill="#f7fafa" d="M 325.5,118.5 C 326.458,119.962 327.624,121.295 329,122.5C 329.667,124.5 329.667,126.5 329,128.5C 324.969,134.366 321.136,140.366 317.5,146.5C 323.581,144.284 329.581,141.118 335.5,137C 337.635,136.365 339.635,136.699 341.5,138C 346.519,142.837 349.519,148.671 350.5,155.5C 350.342,161.99 347.009,164.99 340.5,164.5C 340.649,163.448 340.483,162.448 340,161.5C 340.597,170.458 336.43,174.291 327.5,173C 319.916,167.001 315.582,159.167 314.5,149.5C 310.818,149.409 307.651,148.076 305,145.5C 302.926,142.209 303.092,139.043 305.5,136C 303.263,133.97 301.763,131.47 301,128.5C 300.313,130.92 300.813,133.087 302.5,135C 298.309,138.299 294.309,137.966 290.5,134C 287.903,131.683 287.07,128.85 288,125.5C 292.089,120.254 296.589,115.588 301.5,111.5C 305.247,105.166 309.58,104.832 314.5,110.5C 318.062,114.749 317.395,118.582 312.5,122C 314.92,121.628 316.92,120.295 318.5,118C 320.885,117.444 323.218,117.61 325.5,118.5 Z"/></g>
<g><path style="opacity:1" fill="#faf0ad" d="M 283.5,146.5 C 285.975,149.241 288.975,151.241 292.5,152.5C 294.167,154.833 296.167,156.833 298.5,158.5C 302.513,164.537 306.513,170.537 310.5,176.5C 313.397,183.532 315.064,190.865 315.5,198.5C 315.666,202.846 315.499,207.179 315,211.5C 314,212.167 313,212.833 312,213.5C 311.297,216.713 311.464,219.879 312.5,223C 311.137,226.72 310.137,230.553 309.5,234.5C 308.264,235.246 306.93,235.579 305.5,235.5C 305.527,221.815 305.027,208.149 304,194.5C 300.112,192.425 295.946,190.925 291.5,190C 278.752,187.646 266.086,184.979 253.5,182C 246.13,180.856 238.797,179.856 231.5,179C 219.632,186.096 207.965,193.429 196.5,201C 195.299,201.903 194.465,203.069 194,204.5C 192.058,215.03 190.891,225.697 190.5,236.5C 189.914,236.291 189.414,235.957 189,235.5C 187.177,228.651 186.177,221.651 186,214.5C 185.292,213.619 184.458,212.953 183.5,212.5C 181.108,176.814 196.775,152.647 230.5,140C 249.079,135.106 266.746,137.273 283.5,146.5 Z"/></g>
<g><path style="opacity:1" fill="#2a578a" d="M 289.5,97.5 C 291.017,97.5106 292.184,98.1772 293,99.5C 293.333,102.5 293.667,105.5 294,108.5C 296.619,109.281 299.119,110.281 301.5,111.5C 296.589,115.588 292.089,120.254 288,125.5C 287.07,128.85 287.903,131.683 290.5,134C 294.309,137.966 298.309,138.299 302.5,135C 300.813,133.087 300.313,130.92 301,128.5C 301.763,131.47 303.263,133.97 305.5,136C 303.092,139.043 302.926,142.209 305,145.5C 307.651,148.076 310.818,149.409 314.5,149.5C 315.582,159.167 319.916,167.001 327.5,173C 336.43,174.291 340.597,170.458 340,161.5C 340.483,162.448 340.649,163.448 340.5,164.5C 347.009,164.99 350.342,161.99 350.5,155.5C 349.519,148.671 346.519,142.837 341.5,138C 339.635,136.699 337.635,136.365 335.5,137C 329.581,141.118 323.581,144.284 317.5,146.5C 321.136,140.366 324.969,134.366 329,128.5C 329.667,126.5 329.667,124.5 329,122.5C 327.624,121.295 326.458,119.962 325.5,118.5C 327.582,118.624 329.082,119.624 330,121.5C 330.498,124.817 330.665,128.15 330.5,131.5C 333.167,131.5 335.833,131.5 338.5,131.5C 338.5,132.833 338.5,134.167 338.5,135.5C 340.527,135.338 342.527,135.505 344.5,136C 345.973,136.71 346.64,137.876 346.5,139.5C 348.591,139.682 350.591,139.348 352.5,138.5C 352.833,139.333 353.167,140.167 353.5,141C 354.128,144.126 353.461,147.126 351.5,150C 353.174,156.054 353.84,162.221 353.5,168.5C 356.088,168.543 358.254,169.543 360,171.5C 361.174,175.046 361.84,178.713 362,182.5C 364.78,183.138 366.947,184.638 368.5,187C 367.437,188.188 366.103,188.688 364.5,188.5C 365.069,192.329 364.402,195.663 362.5,198.5C 362.665,195.482 362.498,192.482 362,189.5C 361.167,188.667 360.333,187.833 359.5,187C 356.723,186.949 354.057,186.782 351.5,186.5C 358.684,186.116 361.517,182.45 360,175.5C 359.215,173.714 358.049,172.214 356.5,171C 346.96,171.368 337.627,173.035 328.5,176C 327.383,179.073 327.216,182.24 328,185.5C 328.748,187.751 330.248,189.084 332.5,189.5C 333.167,189.5 333.5,189.833 333.5,190.5C 331.806,191.527 330.473,192.861 329.5,194.5C 329.1,190.653 327.1,188.32 323.5,187.5C 323.079,191.2 322.412,194.867 321.5,198.5C 320.104,196.028 319.27,193.362 319,190.5C 318.501,195.489 318.334,200.489 318.5,205.5C 319.5,205.5 320.5,205.5 321.5,205.5C 321.192,207.924 321.526,210.257 322.5,212.5C 323.736,211.754 325.07,211.421 326.5,211.5C 325.011,213.805 323.511,216.138 322,218.5C 321.722,217.584 321.222,216.918 320.5,216.5C 320.69,214.041 319.69,212.374 317.5,211.5C 318.393,200.467 316.893,189.8 313,179.5C 312.148,178.429 311.315,177.429 310.5,176.5C 310.657,175.127 310.49,173.793 310,172.5C 307.584,169.337 305.418,166.004 303.5,162.5C 302.226,160.549 300.56,159.215 298.5,158.5C 297.5,155.5 295.5,153.5 292.5,152.5C 290.323,149.246 287.323,147.246 283.5,146.5C 282.657,144.827 281.324,143.66 279.5,143C 247.395,129.121 219.729,134.954 196.5,160.5C 184.302,176.095 178.968,193.762 180.5,213.5C 178.567,214.642 177.067,216.308 176,218.5C 174.226,214.027 171.06,212.194 166.5,213C 165.556,215.719 165.223,218.552 165.5,221.5C 164.355,217.689 164.188,213.689 165,209.5C 166.751,210.809 168.251,210.475 169.5,208.5C 175.967,213.266 179.301,211.6 179.5,203.5C 179.167,201.833 178.833,200.167 178.5,198.5C 177.741,201.157 177.074,203.823 176.5,206.5C 172.981,207.969 169.981,207.302 167.5,204.5C 163.527,205.239 159.527,205.905 155.5,206.5C 152.436,205.779 149.77,204.446 147.5,202.5C 153.384,204.232 159.384,204.732 165.5,204C 168.36,200.319 169.193,196.152 168,191.5C 167.329,190.748 166.496,190.414 165.5,190.5C 164.105,188.307 163.105,185.974 162.5,183.5C 161.868,178.695 159.201,175.528 154.5,174C 150.269,173.081 146.269,173.581 142.5,175.5C 142.5,174.5 142.5,173.5 142.5,172.5C 147.179,172.666 151.845,172.499 156.5,172C 155.244,171.583 154.577,170.75 154.5,169.5C 158.842,171.002 162.842,173.169 166.5,176C 168.167,176.667 169.833,176.667 171.5,176C 175.462,173.066 176.962,169.233 176,164.5C 173.526,163.535 171.026,163.368 168.5,164C 169.333,163.167 170.167,162.333 171,161.5C 173.401,162.602 175.901,162.769 178.5,162C 182.858,159.135 184.191,155.302 182.5,150.5C 184.343,150.245 186.343,150.078 188.5,150C 192.825,147.882 194.825,144.382 194.5,139.5C 201.68,139.926 205.68,136.926 206.5,130.5C 207.772,131.046 209.106,131.379 210.5,131.5C 215.881,131.335 218.881,128.668 219.5,123.5C 223.626,125.77 227.959,126.103 232.5,124.5C 231.222,125.749 230.222,127.249 229.5,129C 232.184,129.778 234.517,131.111 236.5,133C 245.911,133.207 255.244,134.041 264.5,135.5C 264.5,134.5 264.5,133.5 264.5,132.5C 268.105,132.471 271.605,131.805 275,130.5C 277.145,130.396 278.979,131.063 280.5,132.5C 281.308,132.192 281.975,131.692 282.5,131C 280.277,130.434 278.277,129.6 276.5,128.5C 280.401,129.143 283.734,128.143 286.5,125.5C 288.159,121.17 290.159,117.003 292.5,113C 292.722,110.725 291.722,109.559 289.5,109.5C 289.833,108.833 290.167,108.167 290.5,107.5C 293.325,103.93 292.992,100.596 289.5,97.5 Z"/></g>
<g><path style="opacity:1" fill="#2f1e27" d="M 292.5,152.5 C 295.5,153.5 297.5,155.5 298.5,158.5C 296.167,156.833 294.167,154.833 292.5,152.5 Z"/></g>
<g><path style="opacity:1" fill="#462e1b" d="M 245.5,145.5 C 262.283,145.096 268.117,152.763 263,168.5C 257.289,174.117 250.455,175.95 242.5,174C 234.085,169.652 231.252,162.819 234,153.5C 236.994,149.295 240.827,146.628 245.5,145.5 Z"/></g>
<g><path style="opacity:1" fill="#e3d3ac" d="M 247.5,147.5 C 248.451,148.919 248.784,150.585 248.5,152.5C 247.127,152.657 245.793,152.49 244.5,152C 245.386,150.385 246.386,148.885 247.5,147.5 Z"/></g>
<g><path style="opacity:1" fill="#f0e5bb" d="M 250.5,148.5 C 254.165,150.374 254.165,151.707 250.5,152.5C 250.5,151.167 250.5,149.833 250.5,148.5 Z"/></g>
<g><path style="opacity:1" fill="#e7d6b4" d="M 242.5,147.5 C 243.552,147.351 244.552,147.517 245.5,148C 244.382,149.074 243.382,150.24 242.5,151.5C 239.875,150.135 239.875,148.802 242.5,147.5 Z"/></g>
<g><path style="opacity:1" fill="#ded0ac" d="M 252.5,148.5 C 254.666,147.371 256.666,147.871 258.5,150C 257.975,150.692 257.308,151.192 256.5,151.5C 255.148,150.476 253.815,149.476 252.5,148.5 Z"/></g>
<g><path style="opacity:1" fill="#3d2d25" d="M 283.5,146.5 C 287.323,147.246 290.323,149.246 292.5,152.5C 288.975,151.241 285.975,149.241 283.5,146.5 Z"/></g>
<g><path style="opacity:1" fill="#372623" d="M 283.5,146.5 C 266.746,137.273 249.079,135.106 230.5,140C 196.775,152.647 181.108,176.814 183.5,212.5C 182.791,213.404 181.791,213.737 180.5,213.5C 178.968,193.762 184.302,176.095 196.5,160.5C 219.729,134.954 247.395,129.121 279.5,143C 281.324,143.66 282.657,144.827 283.5,146.5 Z"/></g>
<g><path style="opacity:1" fill="#e8dcaa" d="M 237.5,151.5 C 239.311,151.572 240.644,152.405 241.5,154C 240.767,155.766 240.433,157.599 240.5,159.5C 238.5,159.5 236.5,159.5 234.5,159.5C 234.394,156.385 235.394,153.719 237.5,151.5 Z"/></g>
<g><path style="opacity:1" fill="#5f6a73" d="M 159.5,155.5 C 160.497,154.287 161.497,154.454 162.5,156C 161.423,156.47 160.423,156.303 159.5,155.5 Z"/></g>
<g><path style="opacity:1" fill="#f9ebb6" d="M 250.5,154.5 C 252.781,154.077 254.448,154.744 255.5,156.5C 254.448,158.256 252.781,158.923 250.5,158.5C 250.5,157.167 250.5,155.833 250.5,154.5 Z"/></g>
<g><path style="opacity:1" fill="#e8daaa" d="M 242.5,154.5 C 244.5,154.5 246.5,154.5 248.5,154.5C 248.5,156.167 248.5,157.833 248.5,159.5C 246.5,159.5 244.5,159.5 242.5,159.5C 242.5,157.833 242.5,156.167 242.5,154.5 Z"/></g>
<g><path style="opacity:1" fill="#eadfab" d="M 258.5,151.5 C 262.158,152.797 263.824,155.463 263.5,159.5C 261.5,159.5 259.5,159.5 257.5,159.5C 257.279,156.721 257.612,154.054 258.5,151.5 Z"/></g>
<g><path style="opacity:1" fill="#5c697b" d="M 328.5,156.5 C 330.975,156.747 330.975,157.413 328.5,158.5C 327.537,158.03 327.537,157.363 328.5,156.5 Z"/></g>
<g><path style="opacity:1" fill="#a18e67" d="M 250.5,154.5 C 250.5,155.833 250.5,157.167 250.5,158.5C 252.781,158.923 254.448,158.256 255.5,156.5C 256.404,157.209 256.737,158.209 256.5,159.5C 254.167,159.5 251.833,159.5 249.5,159.5C 249.216,157.585 249.549,155.919 250.5,154.5 Z"/></g>
<g><path style="opacity:1" fill="#f6ebb0" d="M 242.5,160.5 C 244.5,160.5 246.5,160.5 248.5,160.5C 248.5,162.167 248.5,163.833 248.5,165.5C 244.062,166.575 242.062,164.908 242.5,160.5 Z"/></g>
<g><path style="opacity:1" fill="#382d29" d="M 298.5,158.5 C 300.56,159.215 302.226,160.549 303.5,162.5C 305.418,166.004 307.584,169.337 310,172.5C 310.49,173.793 310.657,175.127 310.5,176.5C 306.513,170.537 302.513,164.537 298.5,158.5 Z"/></g>
<g><path style="opacity:1" fill="#faefba" d="M 250.5,160.5 C 252.167,160.5 253.833,160.5 255.5,160.5C 255.5,162.167 255.5,163.833 255.5,165.5C 253.833,165.5 252.167,165.5 250.5,165.5C 250.5,163.833 250.5,162.167 250.5,160.5 Z"/></g>
<g><path style="opacity:1" fill="#e7d9a8" d="M 234.5,160.5 C 236.5,160.5 238.5,160.5 240.5,160.5C 240.62,162.199 240.954,163.865 241.5,165.5C 240.365,169.039 238.532,169.372 236,166.5C 234.872,164.655 234.372,162.655 234.5,160.5 Z"/></g>
<g><path style="opacity:1" fill="#eee3b2" d="M 257.5,160.5 C 259.5,160.5 261.5,160.5 263.5,160.5C 264.227,164.224 262.894,166.891 259.5,168.5C 258.328,168.081 257.328,167.415 256.5,166.5C 257.348,164.591 257.682,162.591 257.5,160.5 Z"/></g>
<g><path style="opacity:1" fill="#f2e5ba" d="M 250.5,167.5 C 254.157,167.974 254.324,169.307 251,171.5C 250.51,170.207 250.343,168.873 250.5,167.5 Z"/></g>
<g><path style="opacity:1" fill="#decea7" d="M 240.5,169.5 C 242.681,169.284 244.347,170.117 245.5,172C 242.981,172.741 241.315,171.908 240.5,169.5 Z"/></g>
<g><path style="opacity:1" fill="#d7c4a6" d="M 255.5,168.5 C 256.473,168.987 257.473,169.487 258.5,170C 252.915,173.68 251.915,173.18 255.5,168.5 Z"/></g>
<g><path style="opacity:1" fill="#d7bfa0" d="M 245.5,167.5 C 246.5,167.5 247.5,167.5 248.5,167.5C 248.386,173.764 247.386,173.764 245.5,167.5 Z"/></g>
<g><path style="opacity:1" fill="#f8fafa" d="M 362.5,198.5 C 360.416,200.83 357.749,201.997 354.5,202C 347.271,203.981 339.937,204.647 332.5,204C 330.205,201.243 329.205,198.077 329.5,194.5C 330.473,192.861 331.806,191.527 333.5,190.5C 335.262,190.643 336.929,190.309 338.5,189.5C 339.251,190.376 339.751,191.376 340,192.5C 340.706,190.029 340.373,187.695 339,185.5C 338.517,186.448 338.351,187.448 338.5,188.5C 336.265,188.205 334.265,188.539 332.5,189.5C 330.248,189.084 328.748,187.751 328,185.5C 327.216,182.24 327.383,179.073 328.5,176C 337.627,173.035 346.96,171.368 356.5,171C 358.049,172.214 359.215,173.714 360,175.5C 361.517,182.45 358.684,186.116 351.5,186.5C 354.057,186.782 356.723,186.949 359.5,187C 360.333,187.833 361.167,188.667 362,189.5C 362.498,192.482 362.665,195.482 362.5,198.5 Z"/></g>
<g><path style="opacity:1" fill="#f7fafa" d="M 162.5,183.5 C 162.405,187.225 162.238,190.891 162,194.5C 162.74,192.681 163.907,191.348 165.5,190.5C 166.496,190.414 167.329,190.748 168,191.5C 169.193,196.152 168.36,200.319 165.5,204C 159.384,204.732 153.384,204.232 147.5,202.5C 143.562,202.687 140.062,201.687 137,199.5C 136.333,193.833 136.333,188.167 137,182.5C 138.697,179.98 140.53,177.647 142.5,175.5C 146.269,173.581 150.269,173.081 154.5,174C 159.201,175.528 161.868,178.695 162.5,183.5 Z"/></g>
<g><path style="opacity:0.055" fill="#737371" d="M 116.5,175.5 C 116.283,179.705 115.617,183.705 114.5,187.5C 114.198,183.21 114.864,179.21 116.5,175.5 Z"/></g>
<g><path style="opacity:1" fill="#4c351d" d="M 315.5,198.5 C 316.167,202.833 316.833,207.167 317.5,211.5C 319.69,212.374 320.69,214.041 320.5,216.5C 320.194,219.385 320.527,222.052 321.5,224.5C 322.544,230.074 321.044,234.741 317,238.5C 316.333,237.5 316.333,236.5 317,235.5C 318.94,233.955 320.106,231.955 320.5,229.5C 319.771,224.53 319.271,219.53 319,214.5C 317.333,213.167 315.667,213.167 314,214.5C 313.912,221.72 312.912,228.72 311,235.5C 307.608,236.74 306.108,239.24 306.5,243C 306.667,244.833 306.833,246.667 307,248.5C 309.781,244.993 312.615,244.827 315.5,248C 317.833,248.333 320.167,248.667 322.5,249C 323.252,249.671 323.586,250.504 323.5,251.5C 321.565,250.85 319.565,250.517 317.5,250.5C 316.833,266.167 316.167,281.833 315.5,297.5C 315.667,281.497 315.5,265.497 315,249.5C 312.085,246.93 309.419,247.263 307,250.5C 306.833,251.5 306.667,252.5 306.5,253.5C 307.651,266.816 308.151,280.149 308,293.5C 305.124,294.948 302.291,296.281 299.5,297.5C 298.833,297.5 298.167,297.5 297.5,297.5C 279.481,302.038 261.481,306.705 243.5,311.5C 243.5,311.167 243.5,310.833 243.5,310.5C 263.371,304.951 283.371,299.451 303.5,294C 304.416,293.626 305.25,293.126 306,292.5C 306.499,288.179 306.666,283.846 306.5,279.5C 305.656,262.003 304.656,244.67 303.5,227.5C 303.333,216.82 302.833,206.154 302,195.5C 301.5,195 301,194.5 300.5,194C 280.869,189.729 261.202,185.896 241.5,182.5C 239.883,181.028 237.883,180.361 235.5,180.5C 233.9,180.551 232.4,180.884 231,181.5C 230.942,194.663 231.442,207.663 232.5,220.5C 233.146,244.167 233.813,267.834 234.5,291.5C 234.167,291.5 233.833,291.5 233.5,291.5C 231.863,255.178 230.196,218.845 228.5,182.5C 217.801,189.697 206.968,196.697 196,203.5C 193.401,215.059 192.901,226.726 194.5,238.5C 196.53,239.172 198.53,239.838 200.5,240.5C 204.987,242.908 209.653,245.075 214.5,247C 212.155,247.17 209.821,246.837 207.5,246C 200.649,242.83 193.816,239.663 187,236.5C 185.068,229.324 184.234,221.991 184.5,214.5C 183.167,214.5 181.833,214.5 180.5,214.5C 180.5,214.167 180.5,213.833 180.5,213.5C 181.791,213.737 182.791,213.404 183.5,212.5C 184.458,212.953 185.292,213.619 186,214.5C 186.177,221.651 187.177,228.651 189,235.5C 189.414,235.957 189.914,236.291 190.5,236.5C 190.891,225.697 192.058,215.03 194,204.5C 194.465,203.069 195.299,201.903 196.5,201C 207.965,193.429 219.632,186.096 231.5,179C 238.797,179.856 246.13,180.856 253.5,182C 266.086,184.979 278.752,187.646 291.5,190C 295.946,190.925 300.112,192.425 304,194.5C 305.027,208.149 305.527,221.815 305.5,235.5C 306.93,235.579 308.264,235.246 309.5,234.5C 310.137,230.553 311.137,226.72 312.5,223C 311.464,219.879 311.297,216.713 312,213.5C 313,212.833 314,212.167 315,211.5C 315.499,207.179 315.666,202.846 315.5,198.5 Z"/></g>
<g><path style="opacity:1" fill="#f8edaf" d="M 238.5,182.5 C 239.5,182.5 240.5,182.5 241.5,182.5C 261.202,185.896 280.869,189.729 300.5,194C 301,194.5 301.5,195 302,195.5C 302.833,206.154 303.333,216.82 303.5,227.5C 303.795,229.735 303.461,231.735 302.5,233.5C 302.489,223.478 301.989,213.478 301,203.5C 300.167,202.667 299.333,201.833 298.5,201C 279.616,197.095 260.616,193.595 241.5,190.5C 239.971,190.529 238.804,191.196 238,192.5C 237.798,204.832 237.965,217.165 238.5,229.5C 238.187,233.042 238.521,236.375 239.5,239.5C 239.5,247.833 239.5,256.167 239.5,264.5C 237.598,241.286 235.932,217.953 234.5,194.5C 234.919,193.328 235.585,192.328 236.5,191.5C 234.608,189.119 234.108,186.453 235,183.5C 236.579,184.8 237.745,184.466 238.5,182.5 Z"/></g>
<g><path style="opacity:1" fill="#e6d6a5" d="M 241.5,182.5 C 240.5,182.5 239.5,182.5 238.5,182.5C 236.5,182.5 234.5,182.5 232.5,182.5C 232.5,195.167 232.5,207.833 232.5,220.5C 231.442,207.663 230.942,194.663 231,181.5C 232.4,180.884 233.9,180.551 235.5,180.5C 237.883,180.361 239.883,181.028 241.5,182.5 Z"/></g>
<g><path style="opacity:1" fill="#322727" d="M 310.5,176.5 C 311.315,177.429 312.148,178.429 313,179.5C 316.893,189.8 318.393,200.467 317.5,211.5C 316.833,207.167 316.167,202.833 315.5,198.5C 315.064,190.865 313.397,183.532 310.5,176.5 Z"/></g>
<g><path style="opacity:1" fill="#829198" d="M 333.5,190.5 C 333.5,189.833 333.167,189.5 332.5,189.5C 334.265,188.539 336.265,188.205 338.5,188.5C 338.351,187.448 338.517,186.448 339,185.5C 340.373,187.695 340.706,190.029 340,192.5C 339.751,191.376 339.251,190.376 338.5,189.5C 336.929,190.309 335.262,190.643 333.5,190.5 Z"/></g>
<g><path style="opacity:1" fill="#697f92" d="M 162.5,183.5 C 163.105,185.974 164.105,188.307 165.5,190.5C 163.907,191.348 162.74,192.681 162,194.5C 162.238,190.891 162.405,187.225 162.5,183.5 Z"/></g>
<g><path style="opacity:1" fill="#fbf1ae" d="M 233.5,291.5 C 233.5,297.833 233.5,304.167 233.5,310.5C 231.167,310.5 228.833,310.5 226.5,310.5C 216.433,302.115 205.766,294.448 194.5,287.5C 193.334,275.848 193.167,264.181 194,252.5C 197.814,254.984 201.647,257.318 205.5,259.5C 205.5,260.5 205.5,261.5 205.5,262.5C 207.167,262.5 208.833,262.5 210.5,262.5C 210.5,260.5 210.5,258.5 210.5,256.5C 207.769,255.973 205.102,255.14 202.5,254C 201.353,251.512 199.686,249.512 197.5,248C 198.09,246.701 199.09,245.868 200.5,245.5C 205.594,247.941 210.927,249.108 216.5,249C 215.887,246.853 215.221,244.686 214.5,242.5C 212.349,243.659 210.349,243.326 208.5,241.5C 205.885,240.731 203.219,240.397 200.5,240.5C 198.53,239.838 196.53,239.172 194.5,238.5C 192.901,226.726 193.401,215.059 196,203.5C 206.968,196.697 217.801,189.697 228.5,182.5C 230.196,218.845 231.863,255.178 233.5,291.5 Z"/></g>
<g><path style="opacity:1" fill="#4a311a" d="M 302.5,233.5 C 303.554,242.806 303.721,252.139 303,261.5C 302.283,262.044 301.783,262.711 301.5,263.5C 283.329,265.024 265.162,266.691 247,268.5C 245.167,268.333 243.333,268.167 241.5,268C 240.663,266.989 240.33,265.822 240.5,264.5C 240.205,262.265 240.539,260.265 241.5,258.5C 241.198,261.059 241.532,263.393 242.5,265.5C 257.088,265.844 271.755,264.844 286.5,262.5C 291.846,262.879 297.013,262.213 302,260.5C 301.541,241.493 300.541,222.493 299,203.5C 298.5,203 298,202.5 297.5,202C 279.113,199.159 260.78,195.992 242.5,192.5C 241.274,192.52 240.274,192.853 239.5,193.5C 239.455,205.495 239.122,217.495 238.5,229.5C 237.965,217.165 237.798,204.832 238,192.5C 238.804,191.196 239.971,190.529 241.5,190.5C 260.616,193.595 279.616,197.095 298.5,201C 299.333,201.833 300.167,202.667 301,203.5C 301.989,213.478 302.489,223.478 302.5,233.5 Z"/></g>
<g><path style="opacity:1" fill="#f2e5ac" d="M 286.5,262.5 C 290.707,260.527 295.374,259.36 300.5,259C 281.163,258.574 261.83,258.741 242.5,259.5C 242.5,261.5 242.5,263.5 242.5,265.5C 241.532,263.393 241.198,261.059 241.5,258.5C 241.328,257.508 241.662,256.842 242.5,256.5C 242.611,257.117 242.944,257.617 243.5,258C 246.482,258.498 249.482,258.665 252.5,258.5C 256.042,258.813 259.375,258.479 262.5,257.5C 272.834,257.088 283.167,256.588 293.5,256C 294.931,255.535 296.097,254.701 297,253.5C 298.03,238.413 297.363,223.413 295,208.5C 294.5,206.667 293.333,205.5 291.5,205C 275.614,203.207 259.78,201.04 244,198.5C 242.744,198.648 241.577,198.982 240.5,199.5C 239.539,197.735 239.205,195.735 239.5,193.5C 240.274,192.853 241.274,192.52 242.5,192.5C 260.78,195.992 279.113,199.159 297.5,202C 298,202.5 298.5,203 299,203.5C 300.541,222.493 301.541,241.493 302,260.5C 297.013,262.213 291.846,262.879 286.5,262.5 Z"/></g>
<g><path style="opacity:0.778" fill="#3a363c" d="M 381.5,183.5 C 382.167,184.167 382.833,184.833 383.5,185.5C 384.208,189.785 384.708,194.118 385,198.5C 385.792,232.849 385.625,267.183 384.5,301.5C 383.833,266.5 383.167,231.5 382.5,196.5C 382.073,192.176 381.739,187.842 381.5,183.5 Z"/></g>
<g><path style="opacity:0.995" fill="#2a2328" d="M 118.5,171.5 C 118.41,177.272 117.577,182.938 116,188.5C 115.195,229.518 115.362,270.518 116.5,311.5C 115.833,310.833 115.167,310.167 114.5,309.5C 113.171,268.736 113.171,228.069 114.5,187.5C 115.617,183.705 116.283,179.705 116.5,175.5C 116.5,175.167 116.5,174.833 116.5,174.5C 117.167,173.5 117.833,172.5 118.5,171.5 Z"/></g>
<g><path style="opacity:1" fill="#384d71" d="M 121.5,166.5 C 120.001,174.486 118.501,182.486 117,190.5C 116.233,231.176 116.4,271.843 117.5,312.5C 116.833,312.5 116.5,312.167 116.5,311.5C 115.362,270.518 115.195,229.518 116,188.5C 117.577,182.938 118.41,177.272 118.5,171.5C 119.313,169.739 120.313,168.072 121.5,166.5 Z"/></g>
<g><path style="opacity:1" fill="#fbf0ae" d="M 257.5,202.5 C 257.5,203.833 257.5,205.167 257.5,206.5C 255.94,208.954 254.94,211.62 254.5,214.5C 253.797,220.703 253.131,227.036 252.5,233.5C 252.624,234.107 252.957,234.44 253.5,234.5C 256.119,234.232 258.619,234.565 261,235.5C 261.891,238.853 260.725,241.187 257.5,242.5C 257.833,242.833 258.167,243.167 258.5,243.5C 261.732,242.076 265.065,241.076 268.5,240.5C 269.725,240.031 270.725,240.698 271.5,242.5C 272.429,243.689 272.762,245.022 272.5,246.5C 275.167,245.833 277.833,245.167 280.5,244.5C 280.5,245.5 280.5,246.5 280.5,247.5C 268.831,254.746 259.831,252.246 253.5,240C 252.563,239.308 251.897,239.475 251.5,240.5C 249.718,241.72 247.718,242.386 245.5,242.5C 246.075,238.845 245.075,235.845 242.5,233.5C 242.517,224.151 242.183,214.818 241.5,205.5C 241.5,203.833 241.5,202.167 241.5,200.5C 246.975,200.367 252.308,201.034 257.5,202.5 Z"/></g>
<g><path style="opacity:1" fill="#4e361d" d="M 262.5,257.5 C 260.585,257.784 258.919,257.451 257.5,256.5C 269.515,255.948 281.515,255.114 293.5,254C 294.333,253.167 295.167,252.333 296,251.5C 296.568,237.047 295.568,222.713 293,208.5C 292.5,208 292,207.5 291.5,207C 280.193,205.23 268.86,203.73 257.5,202.5C 252.308,201.034 246.975,200.367 241.5,200.5C 241.5,202.167 241.5,203.833 241.5,205.5C 241.167,205.5 240.833,205.5 240.5,205.5C 240.5,203.5 240.5,201.5 240.5,199.5C 241.577,198.982 242.744,198.648 244,198.5C 259.78,201.04 275.614,203.207 291.5,205C 293.333,205.5 294.5,206.667 295,208.5C 297.363,223.413 298.03,238.413 297,253.5C 296.097,254.701 294.931,255.535 293.5,256C 283.167,256.588 272.834,257.088 262.5,257.5 Z"/></g>
<g><path style="opacity:1" fill="#3d291d" d="M 266.5,211.5 C 267.79,212.058 268.623,213.058 269,214.5C 270.141,207.968 273.641,205.801 279.5,208C 284.145,214.768 286.478,222.268 286.5,230.5C 287.86,231.18 289.193,231.847 290.5,232.5C 290.672,233.492 290.338,234.158 289.5,234.5C 286.8,231.52 284.8,231.854 283.5,235.5C 283.529,237.029 284.196,238.196 285.5,239C 282.283,241.435 278.783,243.269 275,244.5C 274.835,242.322 275.668,240.489 277.5,239C 275.212,238.178 272.878,237.511 270.5,237C 271.517,235.951 271.684,234.784 271,233.5C 269.711,235.645 268.878,237.978 268.5,240.5C 265.065,241.076 261.732,242.076 258.5,243.5C 258.167,243.167 257.833,242.833 257.5,242.5C 260.725,241.187 261.891,238.853 261,235.5C 258.619,234.565 256.119,234.232 253.5,234.5C 254.429,233.685 255.429,232.852 256.5,232C 254.742,226.341 254.076,220.508 254.5,214.5C 254.94,211.62 255.94,208.954 257.5,206.5C 262.071,205.033 265.071,206.699 266.5,211.5 Z"/></g>
<g><path style="opacity:1" fill="#332623" d="M 326.5,211.5 C 331.987,210.962 334.153,213.295 333,218.5C 332.303,220.584 331.136,222.251 329.5,223.5C 330.349,220.965 331.349,218.465 332.5,216C 332.138,214.115 330.971,213.281 329,213.5C 325.194,216.162 322.694,219.829 321.5,224.5C 320.527,222.052 320.194,219.385 320.5,216.5C 321.222,216.918 321.722,217.584 322,218.5C 323.511,216.138 325.011,213.805 326.5,211.5 Z"/></g>
<g><path style="opacity:1" fill="#3d4d73" d="M 266.5,211.5 C 268.252,217.681 268.919,224.014 268.5,230.5C 264.333,230.154 262.5,227.82 263,223.5C 262.333,224.833 261.667,224.833 261,223.5C 259.506,218.776 258.339,214.109 257.5,209.5C 257.962,208.12 258.962,207.453 260.5,207.5C 262.765,208.432 264.765,209.765 266.5,211.5 Z"/></g>
<g><path style="opacity:1" fill="#3d4b73" d="M 282.5,232.5 C 281.685,231.163 280.518,230.163 279,229.5C 278.667,227.167 278.333,224.833 278,222.5C 277,225.167 276,225.167 275,222.5C 274.472,218.301 273.639,214.301 272.5,210.5C 276.394,207.528 279.227,208.528 281,213.5C 282.966,218.124 284.133,222.957 284.5,228C 284.693,230.008 284.026,231.508 282.5,232.5 Z"/></g>
<g><path style="opacity:1" fill="#d9e5ea" d="M 359.5,218.5 C 360.5,218.5 361.5,218.5 362.5,218.5C 362.67,219.822 362.337,220.989 361.5,222C 356.73,223.201 352.063,224.701 347.5,226.5C 345.431,226.176 345.098,225.342 346.5,224C 350.923,222.115 355.256,220.281 359.5,218.5 Z"/></g>
<g><path style="opacity:1" fill="#e8f1f3" d="M 134.5,218.5 C 140.097,220.365 145.763,222.032 151.5,223.5C 151.5,224.5 151.5,225.5 151.5,226.5C 146.435,225.312 141.435,223.812 136.5,222C 135.177,221.184 134.511,220.017 134.5,218.5 Z"/></g>
<g><path style="opacity:1" fill="#8f725d" d="M 239.5,193.5 C 239.205,195.735 239.539,197.735 240.5,199.5C 240.5,201.5 240.5,203.5 240.5,205.5C 240.804,220.501 241.138,235.501 241.5,250.5C 240.673,245.015 240.173,239.348 240,233.5C 239.505,235.473 239.338,237.473 239.5,239.5C 238.521,236.375 238.187,233.042 238.5,229.5C 239.122,217.495 239.455,205.495 239.5,193.5 Z"/></g>
<g><path style="opacity:1" fill="#f3f4f3" d="M 272.5,210.5 C 273.639,214.301 274.472,218.301 275,222.5C 276,225.167 277,225.167 278,222.5C 278.333,224.833 278.667,227.167 279,229.5C 280.518,230.163 281.685,231.163 282.5,232.5C 281.927,235.147 281.26,237.813 280.5,240.5C 279.41,239.609 279.41,238.609 280.5,237.5C 276.056,237.647 273.222,235.647 272,231.5C 269.977,224.348 270.144,217.348 272.5,210.5 Z"/></g>
<g><path style="opacity:1" fill="#d7c89a" d="M 254.5,214.5 C 254.076,220.508 254.742,226.341 256.5,232C 255.429,232.852 254.429,233.685 253.5,234.5C 252.957,234.44 252.624,234.107 252.5,233.5C 253.131,227.036 253.797,220.703 254.5,214.5 Z"/></g>
<g><path style="opacity:1" fill="#efeceb" d="M 257.5,209.5 C 258.339,214.109 259.506,218.776 261,223.5C 261.667,224.833 262.333,224.833 263,223.5C 262.5,227.82 264.333,230.154 268.5,230.5C 268.649,233.607 268.149,236.607 267,239.5C 265.989,240.337 264.822,240.67 263.5,240.5C 264.119,235.794 262.119,233.127 257.5,232.5C 255.026,224.796 255.026,217.129 257.5,209.5 Z"/></g>
<g><path style="opacity:1" fill="#e5eff4" d="M 134.5,232.5 C 140.537,232.171 146.537,232.504 152.5,233.5C 152.291,234.086 151.957,234.586 151.5,235C 146.167,235.667 140.833,235.667 135.5,235C 134.748,234.329 134.414,233.496 134.5,232.5 Z"/></g>
<g><path style="opacity:1" fill="#3a2a25" d="M 180.5,213.5 C 180.5,213.833 180.5,214.167 180.5,214.5C 179.778,214.918 179.278,215.584 179,216.5C 179.015,221.222 178.848,225.889 178.5,230.5C 178.648,233.63 179.982,236.13 182.5,238C 176.879,236.062 175.213,232.062 177.5,226C 176.015,222.029 174.015,218.362 171.5,215C 168.763,213.92 167.096,214.754 166.5,217.5C 168.828,222.163 171.161,226.83 173.5,231.5C 173.167,231.833 172.833,232.167 172.5,232.5C 168.964,229.902 165.297,227.569 161.5,225.5C 157.925,226.994 157.591,229.161 160.5,232C 164.532,233.678 168.199,235.844 171.5,238.5C 168.215,239.324 164.882,239.824 161.5,240C 158.506,243.253 159.006,245.753 163,247.5C 165.871,246.599 168.704,245.599 171.5,244.5C 171.833,244.833 172.167,245.167 172.5,245.5C 170.485,248.871 168.485,252.205 166.5,255.5C 166.719,257.915 168.052,258.915 170.5,258.5C 167.361,260.194 165.361,259.194 164.5,255.5C 166.303,253.041 167.637,250.374 168.5,247.5C 165.531,248.329 162.531,248.495 159.5,248C 156.53,244.556 156.863,241.556 160.5,239C 162.833,238.667 165.167,238.333 167.5,238C 164.073,236.204 160.906,234.037 158,231.5C 157.333,229.5 157.333,227.5 158,225.5C 160.719,224.556 163.552,224.223 166.5,224.5C 166.737,223.209 166.404,222.209 165.5,221.5C 165.223,218.552 165.556,215.719 166.5,213C 171.06,212.194 174.226,214.027 176,218.5C 177.067,216.308 178.567,214.642 180.5,213.5 Z"/></g>
<g><path style="opacity:1" fill="#e3ebf0" d="M 345.5,231.5 C 351.167,231.5 356.833,231.5 362.5,231.5C 362.5,232.5 362.5,233.5 362.5,234.5C 356.833,234.5 351.167,234.5 345.5,234.5C 345.5,233.5 345.5,232.5 345.5,231.5 Z"/></g>
<g><path style="opacity:1" fill="#f5ebac" d="M 321.5,224.5 C 322.694,219.829 325.194,216.162 329,213.5C 330.971,213.281 332.138,214.115 332.5,216C 331.349,218.465 330.349,220.965 329.5,223.5C 326.759,225.627 325.759,228.294 326.5,231.5C 329.874,228.955 333.374,226.622 337,224.5C 338.885,224.862 339.719,226.029 339.5,228C 339.415,229.107 339.081,230.107 338.5,231C 334.34,232.912 330.34,235.079 326.5,237.5C 328.045,238.452 329.712,238.785 331.5,238.5C 333.607,239.468 335.941,239.802 338.5,239.5C 339.906,244.931 337.906,247.265 332.5,246.5C 330.692,244.895 328.692,244.561 326.5,245.5C 328.086,248.341 329.92,251.007 332,253.5C 332.833,256.667 331.667,257.833 328.5,257C 327.167,254.809 325.5,252.976 323.5,251.5C 323.586,250.504 323.252,249.671 322.5,249C 320.167,248.667 317.833,248.333 315.5,248C 312.615,244.827 309.781,244.993 307,248.5C 306.833,246.667 306.667,244.833 306.5,243C 306.108,239.24 307.608,236.74 311,235.5C 312.912,228.72 313.912,221.72 314,214.5C 315.667,213.167 317.333,213.167 319,214.5C 319.271,219.53 319.771,224.53 320.5,229.5C 320.106,231.955 318.94,233.955 317,235.5C 316.333,236.5 316.333,237.5 317,238.5C 321.044,234.741 322.544,230.074 321.5,224.5 Z"/></g>
<g><path style="opacity:1" fill="#382821" d="M 329.5,223.5 C 329.343,224.873 329.51,226.207 330,227.5C 333.18,223.328 336.847,222.662 341,225.5C 341.667,227.167 341.667,228.833 341,230.5C 338.727,232.628 336.227,234.295 333.5,235.5C 330.993,235.632 330.326,236.632 331.5,238.5C 329.712,238.785 328.045,238.452 326.5,237.5C 330.34,235.079 334.34,232.912 338.5,231C 339.081,230.107 339.415,229.107 339.5,228C 339.719,226.029 338.885,224.862 337,224.5C 333.374,226.622 329.874,228.955 326.5,231.5C 325.759,228.294 326.759,225.627 329.5,223.5 Z"/></g>
<g><path style="opacity:1" fill="#3f3a50" d="M 333.5,235.5 C 334.919,236.451 336.585,236.784 338.5,236.5C 338.5,237.5 338.5,238.5 338.5,239.5C 335.941,239.802 333.607,239.468 331.5,238.5C 330.326,236.632 330.993,235.632 333.5,235.5 Z"/></g>
<g><path style="opacity:1" fill="#fcf3ac" d="M 238.5,182.5 C 237.745,184.466 236.579,184.8 235,183.5C 234.108,186.453 234.608,189.119 236.5,191.5C 235.585,192.328 234.919,193.328 234.5,194.5C 235.932,217.953 237.598,241.286 239.5,264.5C 239.746,272.14 238.579,272.806 236,266.5C 234.982,251.003 233.815,235.67 232.5,220.5C 232.5,207.833 232.5,195.167 232.5,182.5C 234.5,182.5 236.5,182.5 238.5,182.5 Z"/></g>
<g><path style="opacity:1" fill="#dfe9ef" d="M 147.5,240.5 C 149.288,240.215 150.955,240.548 152.5,241.5C 152.291,242.086 151.957,242.586 151.5,243C 145.958,245.693 140.291,247.193 134.5,247.5C 138.701,244.9 143.034,242.566 147.5,240.5 Z"/></g>
<g><path style="opacity:1" fill="#f5ebae" d="M 180.5,214.5 C 181.833,214.5 183.167,214.5 184.5,214.5C 184.234,221.991 185.068,229.324 187,236.5C 193.816,239.663 200.649,242.83 207.5,246C 209.821,246.837 212.155,247.17 214.5,247C 209.653,245.075 204.987,242.908 200.5,240.5C 203.219,240.397 205.885,240.731 208.5,241.5C 210.349,243.326 212.349,243.659 214.5,242.5C 215.221,244.686 215.887,246.853 216.5,249C 210.927,249.108 205.594,247.941 200.5,245.5C 199.09,245.868 198.09,246.701 197.5,248C 199.686,249.512 201.353,251.512 202.5,254C 205.102,255.14 207.769,255.973 210.5,256.5C 210.5,258.5 210.5,260.5 210.5,262.5C 208.833,262.5 207.167,262.5 205.5,262.5C 205.5,261.5 205.5,260.5 205.5,259.5C 206.773,258.923 206.773,258.257 205.5,257.5C 199.33,253.581 192.997,249.914 186.5,246.5C 183.207,248.741 179.54,250.074 175.5,250.5C 172.988,252.67 171.321,255.337 170.5,258.5C 168.052,258.915 166.719,257.915 166.5,255.5C 168.485,252.205 170.485,248.871 172.5,245.5C 172.167,245.167 171.833,244.833 171.5,244.5C 168.704,245.599 165.871,246.599 163,247.5C 159.006,245.753 158.506,243.253 161.5,240C 164.882,239.824 168.215,239.324 171.5,238.5C 168.199,235.844 164.532,233.678 160.5,232C 157.591,229.161 157.925,226.994 161.5,225.5C 165.297,227.569 168.964,229.902 172.5,232.5C 172.833,232.167 173.167,231.833 173.5,231.5C 171.161,226.83 168.828,222.163 166.5,217.5C 167.096,214.754 168.763,213.92 171.5,215C 174.015,218.362 176.015,222.029 177.5,226C 175.213,232.062 176.879,236.062 182.5,238C 179.982,236.13 178.648,233.63 178.5,230.5C 178.848,225.889 179.015,221.222 179,216.5C 179.278,215.584 179.778,214.918 180.5,214.5 Z"/></g>
<g><path style="opacity:1" fill="#e0ecf1" d="M 345.5,240.5 C 346.873,240.343 348.207,240.51 349.5,241C 354.162,242.707 358.495,244.874 362.5,247.5C 356.896,247.594 351.562,246.094 346.5,243C 345.748,242.329 345.414,241.496 345.5,240.5 Z"/></g>
<g><path style="opacity:1" fill="#3c4a61" d="M 338.5,239.5 C 339.496,239.414 340.329,239.748 341,240.5C 341.798,242.259 341.631,243.926 340.5,245.5C 338.9,248.096 336.567,249.43 333.5,249.5C 333.5,250.5 333.5,251.5 333.5,252.5C 331.946,251.086 330.612,249.419 329.5,247.5C 330.325,246.614 331.325,246.281 332.5,246.5C 337.906,247.265 339.906,244.931 338.5,239.5 Z"/></g>
<g><path style="opacity:1" fill="#f1e6ad" d="M 257.5,202.5 C 268.86,203.73 280.193,205.23 291.5,207C 292,207.5 292.5,208 293,208.5C 295.568,222.713 296.568,237.047 296,251.5C 295.167,252.333 294.333,253.167 293.5,254C 281.515,255.114 269.515,255.948 257.5,256.5C 255.265,256.205 253.265,256.539 251.5,257.5C 248.881,257.768 246.381,257.435 244,256.5C 243.478,248.83 242.978,241.163 242.5,233.5C 245.075,235.845 246.075,238.845 245.5,242.5C 247.718,242.386 249.718,241.72 251.5,240.5C 251.586,241.496 251.252,242.329 250.5,243C 243.833,244.321 243.833,244.987 250.5,245C 251.333,244.167 252.167,243.333 253,242.5C 257.757,251.788 265.257,254.954 275.5,252C 281.542,249.997 285.876,246.163 288.5,240.5C 290.198,241.681 291.865,241.681 293.5,240.5C 291.185,239.766 289.352,238.432 288,236.5C 286.957,241.279 284.457,244.946 280.5,247.5C 280.5,246.5 280.5,245.5 280.5,244.5C 277.833,245.167 275.167,245.833 272.5,246.5C 272.762,245.022 272.429,243.689 271.5,242.5C 270.725,240.698 269.725,240.031 268.5,240.5C 268.878,237.978 269.711,235.645 271,233.5C 271.684,234.784 271.517,235.951 270.5,237C 272.878,237.511 275.212,238.178 277.5,239C 275.668,240.489 274.835,242.322 275,244.5C 278.783,243.269 282.283,241.435 285.5,239C 284.196,238.196 283.529,237.029 283.5,235.5C 284.8,231.854 286.8,231.52 289.5,234.5C 290.234,235.708 290.567,237.041 290.5,238.5C 291.833,238.5 293.167,238.5 294.5,238.5C 294.111,230.164 293.611,221.831 293,213.5C 291.579,207.08 290.079,207.08 288.5,213.5C 287.5,213.5 286.5,213.5 285.5,213.5C 286.194,218.805 286.528,224.138 286.5,229.5C 287.833,229.5 289.167,229.5 290.5,229.5C 290.5,230.5 290.5,231.5 290.5,232.5C 289.193,231.847 287.86,231.18 286.5,230.5C 286.478,222.268 284.145,214.768 279.5,208C 273.641,205.801 270.141,207.968 269,214.5C 268.623,213.058 267.79,212.058 266.5,211.5C 265.071,206.699 262.071,205.033 257.5,206.5C 257.5,205.167 257.5,203.833 257.5,202.5 Z"/></g>
<g><path style="opacity:1" fill="#48331b" d="M 251.5,240.5 C 251.897,239.475 252.563,239.308 253.5,240C 259.831,252.246 268.831,254.746 280.5,247.5C 284.457,244.946 286.957,241.279 288,236.5C 289.352,238.432 291.185,239.766 293.5,240.5C 291.865,241.681 290.198,241.681 288.5,240.5C 285.876,246.163 281.542,249.997 275.5,252C 265.257,254.954 257.757,251.788 253,242.5C 252.167,243.333 251.333,244.167 250.5,245C 243.833,244.987 243.833,244.321 250.5,243C 251.252,242.329 251.586,241.496 251.5,240.5 Z"/></g>
<g><path style="opacity:1" fill="#fcf3ae" d="M 289.5,234.5 C 290.338,234.158 290.672,233.492 290.5,232.5C 290.5,231.5 290.5,230.5 290.5,229.5C 289.167,229.5 287.833,229.5 286.5,229.5C 286.528,224.138 286.194,218.805 285.5,213.5C 286.5,213.5 287.5,213.5 288.5,213.5C 290.079,207.08 291.579,207.08 293,213.5C 293.611,221.831 294.111,230.164 294.5,238.5C 293.167,238.5 291.833,238.5 290.5,238.5C 290.567,237.041 290.234,235.708 289.5,234.5 Z"/></g>
<g><path style="opacity:1" fill="#412713" d="M 240.5,205.5 C 240.833,205.5 241.167,205.5 241.5,205.5C 242.183,214.818 242.517,224.151 242.5,233.5C 242.978,241.163 243.478,248.83 244,256.5C 246.381,257.435 248.881,257.768 251.5,257.5C 252.167,257.5 252.5,257.833 252.5,258.5C 249.482,258.665 246.482,258.498 243.5,258C 242.944,257.617 242.611,257.117 242.5,256.5C 242.675,254.379 242.341,252.379 241.5,250.5C 241.138,235.501 240.804,220.501 240.5,205.5 Z"/></g>
<g><path style="opacity:1" fill="#f7eead" d="M 315.5,297.5 C 315.699,300.941 315.199,304.274 314,307.5C 309.286,303.946 304.453,300.613 299.5,297.5C 302.291,296.281 305.124,294.948 308,293.5C 308.151,280.149 307.651,266.816 306.5,253.5C 306.667,252.5 306.833,251.5 307,250.5C 309.419,247.263 312.085,246.93 315,249.5C 315.5,265.497 315.667,281.497 315.5,297.5 Z"/></g>
<g><path style="opacity:1" fill="#2f2119" d="M 181.5,251.5 C 181.833,251.5 182.167,251.5 182.5,251.5C 182.128,270.198 182.628,288.865 184,307.5C 186.235,314.297 188.735,320.964 191.5,327.5C 189.292,326.106 187.792,324.106 187,321.5C 184.578,316.062 182.912,310.395 182,304.5C 181.5,286.836 181.333,269.17 181.5,251.5 Z"/></g>
<g><path style="opacity:1" fill="#463019" d="M 205.5,259.5 C 201.647,257.318 197.814,254.984 194,252.5C 193.167,264.181 193.334,275.848 194.5,287.5C 205.766,294.448 216.433,302.115 226.5,310.5C 226.5,310.833 226.5,311.167 226.5,311.5C 226.167,311.5 225.833,311.5 225.5,311.5C 215.409,303.943 205.076,296.61 194.5,289.5C 192.994,293.76 193.327,297.76 195.5,301.5C 194.662,301.842 194.328,302.508 194.5,303.5C 193.833,302.5 193.167,301.5 192.5,300.5C 191.847,284.069 191.18,267.735 190.5,251.5C 187.833,247.5 185.167,247.5 182.5,251.5C 182.167,251.5 181.833,251.5 181.5,251.5C 179.801,251.34 178.134,251.506 176.5,252C 174.6,254.335 172.6,256.502 170.5,258.5C 171.321,255.337 172.988,252.67 175.5,250.5C 179.54,250.074 183.207,248.741 186.5,246.5C 192.997,249.914 199.33,253.581 205.5,257.5C 206.773,258.257 206.773,258.923 205.5,259.5 Z"/></g>
<g><path style="opacity:1" fill="#73603d" d="M 251.5,257.5 C 253.265,256.539 255.265,256.205 257.5,256.5C 258.919,257.451 260.585,257.784 262.5,257.5C 259.375,258.479 256.042,258.813 252.5,258.5C 252.5,257.833 252.167,257.5 251.5,257.5 Z"/></g>
<g><path style="opacity:1" fill="#352c30" d="M 332.5,246.5 C 331.325,246.281 330.325,246.614 329.5,247.5C 330.612,249.419 331.946,251.086 333.5,252.5C 333.66,254.199 333.494,255.866 333,257.5C 326.976,259.908 323.81,257.908 323.5,251.5C 325.5,252.976 327.167,254.809 328.5,257C 331.667,257.833 332.833,256.667 332,253.5C 329.92,251.007 328.086,248.341 326.5,245.5C 328.692,244.561 330.692,244.895 332.5,246.5 Z"/></g>
<g><path style="opacity:1" fill="#d0bd91" d="M 190.5,251.5 C 191.18,267.735 191.847,284.069 192.5,300.5C 191.883,300.611 191.383,300.944 191,301.5C 190.5,284.837 190.333,268.17 190.5,251.5 Z"/></g>
<g><path style="opacity:1" fill="#644c32" d="M 241.5,250.5 C 242.341,252.379 242.675,254.379 242.5,256.5C 241.662,256.842 241.328,257.508 241.5,258.5C 240.539,260.265 240.205,262.265 240.5,264.5C 240.167,264.5 239.833,264.5 239.5,264.5C 239.5,256.167 239.5,247.833 239.5,239.5C 239.338,237.473 239.505,235.473 240,233.5C 240.173,239.348 240.673,245.015 241.5,250.5 Z"/></g>
<g><path style="opacity:1" fill="#f3f7f9" d="M 135.5,258.5 C 138.247,258.187 140.914,258.52 143.5,259.5C 142.167,259.833 140.833,260.167 139.5,260.5C 137.667,260.415 136.334,259.748 135.5,258.5 Z"/></g>
<g><path style="opacity:1" fill="#faf1ad" d="M 286.5,262.5 C 271.755,264.844 257.088,265.844 242.5,265.5C 242.5,263.5 242.5,261.5 242.5,259.5C 261.83,258.741 281.163,258.574 300.5,259C 295.374,259.36 290.707,260.527 286.5,262.5 Z"/></g>
<g><path style="opacity:1" fill="#d0e4ec" d="M 362.5,260.5 C 362.799,262.604 362.466,264.604 361.5,266.5C 361.574,264.688 361.241,262.688 360.5,260.5C 359.682,262.108 359.015,263.775 358.5,265.5C 357.675,266.386 356.675,266.719 355.5,266.5C 354.271,263.865 354.271,261.199 355.5,258.5C 356.298,260.078 356.798,261.744 357,263.5C 357.198,261.089 358.364,259.423 360.5,258.5C 361.713,258.747 362.38,259.414 362.5,260.5 Z"/></g>
<g><path style="opacity:1" fill="#cddee3" d="M 141.5,268.5 C 140.711,268.783 140.044,269.283 139.5,270C 140.793,270.49 142.127,270.657 143.5,270.5C 143.5,271.5 143.5,272.5 143.5,273.5C 140.833,273.5 138.167,273.5 135.5,273.5C 136.091,270.386 137.758,267.886 140.5,266C 138.744,265.798 137.078,265.298 135.5,264.5C 138.086,263.52 140.753,263.187 143.5,263.5C 143.608,265.514 142.942,267.18 141.5,268.5 Z"/></g>
<g><path style="opacity:1" fill="#c8b491" d="M 303.5,227.5 C 304.656,244.67 305.656,262.003 306.5,279.5C 305.686,277.369 305.186,275.036 305,272.5C 304.825,277.019 304.325,281.353 303.5,285.5C 303.5,284.5 303.5,283.5 303.5,282.5C 302.167,282.5 300.833,282.5 299.5,282.5C 299.5,282.167 299.5,281.833 299.5,281.5C 300.833,281.5 302.167,281.5 303.5,281.5C 303.5,278.833 303.5,276.167 303.5,273.5C 301.585,273.216 299.919,273.549 298.5,274.5C 296.265,274.795 294.265,274.461 292.5,273.5C 296.154,273.058 299.821,272.724 303.5,272.5C 303.5,271.167 303.5,269.833 303.5,268.5C 304.622,266.712 304.789,264.712 304,262.5C 303.329,263.252 302.496,263.586 301.5,263.5C 301.783,262.711 302.283,262.044 303,261.5C 303.721,252.139 303.554,242.806 302.5,233.5C 303.461,231.735 303.795,229.735 303.5,227.5 Z"/></g>
<g><path style="opacity:1" fill="#d2e3e9" d="M 354.5,276.5 C 354.5,273.833 354.5,271.167 354.5,268.5C 356.164,269.949 356.998,271.949 357,274.5C 357.871,266.576 359.038,266.576 360.5,274.5C 361.314,272.234 361.814,269.9 362,267.5C 362.498,270.482 362.665,273.482 362.5,276.5C 359.833,276.5 357.167,276.5 354.5,276.5 Z"/></g>
<g><path style="opacity:1" fill="#cbdae4" d="M 152.5,275.5 C 152.735,274.903 153.235,274.57 154,274.5C 162.645,277.555 162.645,280.555 154,283.5C 153.5,283.167 153,282.833 152.5,282.5C 153.766,280.028 153.766,277.694 152.5,275.5 Z"/></g>
<g><path style="opacity:1" fill="#432915" d="M 303.5,268.5 C 303.5,269.833 303.5,271.167 303.5,272.5C 299.821,272.724 296.154,273.058 292.5,273.5C 288.358,274.04 284.358,274.706 280.5,275.5C 267.161,277.168 253.828,278.834 240.5,280.5C 240.5,278.833 240.5,277.167 240.5,275.5C 261.467,272.886 282.467,270.552 303.5,268.5 Z"/></g>
<g><path style="opacity:1" fill="#c0a891" d="M 297.5,269.5 C 303.208,269.492 303.541,269.992 298.5,271C 292.536,272.329 286.536,272.996 280.5,273C 286.232,271.593 291.898,270.426 297.5,269.5 Z"/></g>
<g><path style="opacity:1" fill="#41617f" d="M 362.5,260.5 C 363.828,269.902 363.828,279.402 362.5,289C 363.43,290.194 364.097,291.527 364.5,293C 363.259,294.731 362.259,296.564 361.5,298.5C 360.448,298.649 359.448,298.483 358.5,298C 360.923,296.429 362.256,294.263 362.5,291.5C 360.167,291.5 357.833,291.5 355.5,291.5C 355.371,289.784 355.038,288.117 354.5,286.5C 356.496,288.333 358.829,288.833 361.5,288C 362.451,284.943 362.784,281.777 362.5,278.5C 361.167,278.5 359.833,278.5 358.5,278.5C 358.215,280.288 358.548,281.955 359.5,283.5C 360.192,282.975 360.692,282.308 361,281.5C 362.177,285.492 360.677,287.158 356.5,286.5C 357.01,283.612 356.344,281.279 354.5,279.5C 354.5,278.5 354.5,277.5 354.5,276.5C 357.167,276.5 359.833,276.5 362.5,276.5C 362.665,273.482 362.498,270.482 362,267.5C 361.814,269.9 361.314,272.234 360.5,274.5C 359.038,266.576 357.871,266.576 357,274.5C 356.998,271.949 356.164,269.949 354.5,268.5C 354.833,267.833 355.167,267.167 355.5,266.5C 356.675,266.719 357.675,266.386 358.5,265.5C 359.015,263.775 359.682,262.108 360.5,260.5C 361.241,262.688 361.574,264.688 361.5,266.5C 362.466,264.604 362.799,262.604 362.5,260.5 Z"/></g>
<g><path style="opacity:1" fill="#cbdce5" d="M 139.5,280.5 C 138.167,280.5 136.833,280.5 135.5,280.5C 135.5,279.5 135.5,278.5 135.5,277.5C 137.5,277.5 139.5,277.5 141.5,277.5C 141.281,276.325 141.614,275.325 142.5,274.5C 143.833,277.5 143.833,280.5 142.5,283.5C 141.859,282.007 140.859,281.007 139.5,280.5 Z"/></g>
<g><path style="opacity:1" fill="#d1e1ea" d="M 337.5,274.5 C 339.344,276.279 340.01,278.612 339.5,281.5C 343.909,282.101 345.242,280.434 343.5,276.5C 342.808,277.025 342.308,277.692 342,278.5C 341.51,277.207 341.343,275.873 341.5,274.5C 342.833,274.5 344.167,274.5 345.5,274.5C 345.664,277.187 345.497,279.854 345,282.5C 342.16,285.371 339.826,285.037 338,281.5C 337.503,279.19 337.337,276.857 337.5,274.5 Z"/></g>
<g><path style="opacity:1" fill="#d0e0ea" d="M 354.5,286.5 C 354.5,284.167 354.5,281.833 354.5,279.5C 356.344,281.279 357.01,283.612 356.5,286.5C 360.677,287.158 362.177,285.492 361,281.5C 360.692,282.308 360.192,282.975 359.5,283.5C 358.548,281.955 358.215,280.288 358.5,278.5C 359.833,278.5 361.167,278.5 362.5,278.5C 362.784,281.777 362.451,284.943 361.5,288C 358.829,288.833 356.496,288.333 354.5,286.5 Z"/></g>
<g><path style="opacity:1" fill="#d6e9ef" d="M 159.5,288.5 C 160.11,289.391 160.443,290.391 160.5,291.5C 160.799,293.604 160.466,295.604 159.5,297.5C 159.705,295.365 159.371,293.032 158.5,290.5C 157.349,289.269 156.183,289.269 155,290.5C 154.333,292.167 154.333,293.833 155,295.5C 155.308,294.692 155.808,294.025 156.5,293.5C 157.429,294.689 157.762,296.022 157.5,297.5C 155.833,297.5 154.167,297.5 152.5,297.5C 152.336,294.813 152.503,292.146 153,289.5C 154.898,287.316 157.064,286.983 159.5,288.5 Z"/></g>
<g><path style="opacity:1" fill="#f8eeae" d="M 232.5,220.5 C 233.815,235.67 234.982,251.003 236,266.5C 238.579,272.806 239.746,272.14 239.5,264.5C 239.833,264.5 240.167,264.5 240.5,264.5C 240.33,265.822 240.663,266.989 241.5,268C 243.333,268.167 245.167,268.333 247,268.5C 265.162,266.691 283.329,265.024 301.5,263.5C 302.496,263.586 303.329,263.252 304,262.5C 304.789,264.712 304.622,266.712 303.5,268.5C 282.467,270.552 261.467,272.886 240.5,275.5C 240.5,277.167 240.5,278.833 240.5,280.5C 240.5,281.167 240.5,281.833 240.5,282.5C 240.5,285.833 240.5,289.167 240.5,292.5C 241.5,293.167 242.5,293.833 243.5,294.5C 241.088,294.694 240.088,296.027 240.5,298.5C 248.825,297.836 256.825,296.169 264.5,293.5C 267.713,293.81 270.713,293.477 273.5,292.5C 279.427,290.852 285.427,289.518 291.5,288.5C 294.33,288.037 296.997,287.371 299.5,286.5C 301.099,286.768 302.432,286.434 303.5,285.5C 304.325,281.353 304.825,277.019 305,272.5C 305.186,275.036 305.686,277.369 306.5,279.5C 306.666,283.846 306.499,288.179 306,292.5C 305.25,293.126 304.416,293.626 303.5,294C 283.371,299.451 263.371,304.951 243.5,310.5C 240.396,311.841 237.562,311.507 235,309.5C 234.501,303.509 234.334,297.509 234.5,291.5C 233.813,267.834 233.146,244.167 232.5,220.5 Z"/></g>
<g><path style="opacity:1" fill="#937864" d="M 273.5,292.5 C 270.713,293.477 267.713,293.81 264.5,293.5C 262.473,293.662 260.473,293.495 258.5,293C 265.542,291.485 272.542,290.152 279.5,289C 276.34,290.371 273.006,291.371 269.5,292C 270.793,292.49 272.127,292.657 273.5,292.5 Z"/></g>
<g><path style="opacity:1" fill="#90755e" d="M 296.5,281.5 C 296.842,280.662 297.508,280.328 298.5,280.5C 298.5,281.167 298.833,281.5 299.5,281.5C 299.5,281.833 299.5,282.167 299.5,282.5C 295.375,283.967 291.042,285.133 286.5,286C 291.828,286.21 296.995,285.377 302,283.5C 302.167,283.833 302.333,284.167 302.5,284.5C 300.922,285.298 299.256,285.798 297.5,286C 298.094,286.464 298.761,286.631 299.5,286.5C 296.997,287.371 294.33,288.037 291.5,288.5C 288.341,287.927 285.008,287.76 281.5,288C 282.833,287.667 284.167,287.333 285.5,287C 284.667,286.833 283.833,286.667 283,286.5C 280.192,287.386 277.359,287.553 274.5,287C 282.579,285.314 289.912,283.481 296.5,281.5 Z"/></g>
<g><path style="opacity:1" fill="#3a1e0d" d="M 299.5,282.5 C 300.833,282.5 302.167,282.5 303.5,282.5C 303.5,283.5 303.5,284.5 303.5,285.5C 302.432,286.434 301.099,286.768 299.5,286.5C 298.761,286.631 298.094,286.464 297.5,286C 299.256,285.798 300.922,285.298 302.5,284.5C 302.333,284.167 302.167,283.833 302,283.5C 296.995,285.377 291.828,286.21 286.5,286C 291.042,285.133 295.375,283.967 299.5,282.5 Z"/></g>
<g><path style="opacity:1" fill="#452d18" d="M 298.5,274.5 C 299.919,273.549 301.585,273.216 303.5,273.5C 303.5,276.167 303.5,278.833 303.5,281.5C 302.167,281.5 300.833,281.5 299.5,281.5C 298.833,281.5 298.5,281.167 298.5,280.5C 302.787,279.952 303.12,279.286 299.5,278.5C 280.81,281.605 262.144,284.772 243.5,288C 242.663,289.011 242.33,290.178 242.5,291.5C 260.369,287.526 278.369,284.193 296.5,281.5C 289.912,283.481 282.579,285.314 274.5,287C 277.359,287.553 280.192,287.386 283,286.5C 283.833,286.667 284.667,286.833 285.5,287C 284.167,287.333 282.833,287.667 281.5,288C 285.008,287.76 288.341,287.927 291.5,288.5C 285.427,289.518 279.427,290.852 273.5,292.5C 272.127,292.657 270.793,292.49 269.5,292C 273.006,291.371 276.34,290.371 279.5,289C 272.542,290.152 265.542,291.485 258.5,293C 260.473,293.495 262.473,293.662 264.5,293.5C 256.825,296.169 248.825,297.836 240.5,298.5C 240.088,296.027 241.088,294.694 243.5,294.5C 245.126,294.062 246.793,293.728 248.5,293.5C 250.643,293.529 251.977,294.196 252.5,295.5C 254.197,295.101 255.863,294.601 257.5,294C 255.618,293.802 253.952,293.302 252.5,292.5C 257.888,291.653 263.221,290.487 268.5,289C 262.386,288.86 256.386,289.693 250.5,291.5C 247.193,292.051 243.86,292.384 240.5,292.5C 240.5,289.167 240.5,285.833 240.5,282.5C 244.064,281.577 247.731,281.244 251.5,281.5C 248.689,282.475 245.689,283.142 242.5,283.5C 242.5,284.5 242.5,285.5 242.5,286.5C 262.155,283.169 281.822,279.836 301.5,276.5C 302.043,276.44 302.376,276.107 302.5,275.5C 301.311,274.571 299.978,274.238 298.5,274.5 Z"/></g>
<g><path style="opacity:1" fill="#dfc9aa" d="M 252.5,292.5 C 251.508,292.672 250.842,292.338 250.5,291.5C 256.386,289.693 262.386,288.86 268.5,289C 263.221,290.487 257.888,291.653 252.5,292.5 Z"/></g>
<g><path style="opacity:1" fill="#ebdbaf" d="M 298.5,280.5 C 297.508,280.328 296.842,280.662 296.5,281.5C 278.369,284.193 260.369,287.526 242.5,291.5C 242.33,290.178 242.663,289.011 243.5,288C 262.144,284.772 280.81,281.605 299.5,278.5C 303.12,279.286 302.787,279.952 298.5,280.5 Z"/></g>
<g><path style="opacity:1" fill="#eadaad" d="M 301.5,276.5 C 281.822,279.836 262.155,283.169 242.5,286.5C 242.5,285.5 242.5,284.5 242.5,283.5C 245.689,283.142 248.689,282.475 251.5,281.5C 264.934,280.613 278.268,278.946 291.5,276.5C 294.985,275.41 298.319,275.41 301.5,276.5 Z"/></g>
<g><path style="opacity:1" fill="#442c18" d="M 291.5,276.5 C 278.268,278.946 264.934,280.613 251.5,281.5C 260.976,279.475 270.643,277.808 280.5,276.5C 284.301,275.285 287.967,275.285 291.5,276.5 Z"/></g>
<g><path style="opacity:1" fill="#b8a288" d="M 280.5,275.5 C 280.5,275.833 280.5,276.167 280.5,276.5C 270.643,277.808 260.976,279.475 251.5,281.5C 247.731,281.244 244.064,281.577 240.5,282.5C 240.5,281.833 240.5,281.167 240.5,280.5C 253.828,278.834 267.161,277.168 280.5,275.5 Z"/></g>
<g><path style="opacity:1" fill="#e5cfb5" d="M 246.5,276.5 C 247.376,276.369 248.043,276.702 248.5,277.5C 246.579,278.641 244.579,278.808 242.5,278C 244.058,277.79 245.391,277.29 246.5,276.5 Z"/></g>
<g><path style="opacity:1" fill="#816750" d="M 292.5,273.5 C 294.265,274.461 296.265,274.795 298.5,274.5C 299.978,274.238 301.311,274.571 302.5,275.5C 302.376,276.107 302.043,276.44 301.5,276.5C 298.319,275.41 294.985,275.41 291.5,276.5C 287.967,275.285 284.301,275.285 280.5,276.5C 280.5,276.167 280.5,275.833 280.5,275.5C 284.358,274.706 288.358,274.04 292.5,273.5 Z"/></g>
<g><path style="opacity:1" fill="#c7b096" d="M 275.5,272.5 C 280.766,273.134 280.766,273.801 275.5,274.5C 267.194,275.95 258.861,276.783 250.5,277C 258.944,275.536 267.277,274.036 275.5,272.5 Z"/></g>
<g><path style="opacity:1" fill="#466883" d="M 356.5,293.5 C 357.552,293.351 358.552,293.517 359.5,294C 356.758,295.886 355.091,298.386 354.5,301.5C 356.167,301.5 357.833,301.5 359.5,301.5C 359.198,304.059 359.532,306.393 360.5,308.5C 360.44,309.043 360.107,309.376 359.5,309.5C 358.835,302.378 357.668,302.044 356,308.5C 355.667,306.5 355.333,304.5 355,302.5C 354.722,303.416 354.222,304.082 353.5,304.5C 353.5,301.5 353.5,298.5 353.5,295.5C 355.179,295.715 356.179,295.048 356.5,293.5 Z"/></g>
<g><path style="opacity:1" fill="#d7e8ed" d="M 337.5,289.5 C 340.167,289.5 342.833,289.5 345.5,289.5C 345.057,292.624 343.39,294.957 340.5,296.5C 342.167,297.167 343.833,297.833 345.5,298.5C 342.914,299.48 340.247,299.813 337.5,299.5C 338.091,296.386 339.758,293.886 342.5,292C 340.256,291.95 338.589,291.117 337.5,289.5 Z"/></g>
<g><path style="opacity:1" fill="#cbdbe4" d="M 355.5,291.5 C 357.833,291.5 360.167,291.5 362.5,291.5C 362.256,294.263 360.923,296.429 358.5,298C 359.448,298.483 360.448,298.649 361.5,298.5C 362.404,299.209 362.737,300.209 362.5,301.5C 361.5,301.5 360.5,301.5 359.5,301.5C 357.833,301.5 356.167,301.5 354.5,301.5C 355.091,298.386 356.758,295.886 359.5,294C 358.552,293.517 357.552,293.351 356.5,293.5C 354.576,293.289 354.243,292.623 355.5,291.5 Z"/></g>
<g><path style="opacity:1" fill="#f7edad" d="M 225.5,311.5 C 225.819,316.363 225.486,321.03 224.5,325.5C 214.833,317.5 205.167,309.5 195.5,301.5C 193.327,297.76 192.994,293.76 194.5,289.5C 205.076,296.61 215.409,303.943 225.5,311.5 Z"/></g>
<g><path style="opacity:1" fill="#d2e4ed" d="M 161.5,302.5 C 161.5,303.167 161.5,303.833 161.5,304.5C 150.98,304.422 150.98,303.755 161.5,302.5 Z"/></g>
<g><path style="opacity:1" fill="#391611" d="M 317.5,250.5 C 317.667,267.503 317.5,284.503 317,301.5C 315.957,310.418 313.29,318.752 309,326.5C 307.483,328.24 305.983,329.906 304.5,331.5C 307.532,326.447 309.699,321.114 311,315.5C 281.827,329.001 252.327,341.834 222.5,354C 223.571,354.852 224.571,355.685 225.5,356.5C 223.297,356.396 221.297,355.73 219.5,354.5C 216.518,352.518 213.852,350.184 211.5,347.5C 205.444,333.001 199.777,318.334 194.5,303.5C 194.328,302.508 194.662,301.842 195.5,301.5C 205.167,309.5 214.833,317.5 224.5,325.5C 224.56,326.043 224.893,326.376 225.5,326.5C 226.494,321.544 226.827,316.544 226.5,311.5C 226.5,311.167 226.5,310.833 226.5,310.5C 228.833,310.5 231.167,310.5 233.5,310.5C 233.5,304.167 233.5,297.833 233.5,291.5C 233.833,291.5 234.167,291.5 234.5,291.5C 234.334,297.509 234.501,303.509 235,309.5C 237.562,311.507 240.396,311.841 243.5,310.5C 243.5,310.833 243.5,311.167 243.5,311.5C 240.236,312.324 236.902,312.658 233.5,312.5C 231.735,311.539 229.735,311.205 227.5,311.5C 227.5,316.833 227.5,322.167 227.5,327.5C 228.791,327.737 229.791,327.404 230.5,326.5C 252.73,319.423 275.063,312.756 297.5,306.5C 297.5,303.5 297.5,300.5 297.5,297.5C 298.167,297.5 298.833,297.5 299.5,297.5C 304.453,300.613 309.286,303.946 314,307.5C 315.199,304.274 315.699,300.941 315.5,297.5C 316.167,281.833 316.833,266.167 317.5,250.5 Z"/></g>
<g><path style="opacity:1" fill="#c8b49e" d="M 243.5,295.5 C 249.796,295.441 249.963,296.108 244,297.5C 242.316,297.317 242.15,296.65 243.5,295.5 Z"/></g>
<g><path style="opacity:1" fill="#b19881" d="M 250.5,291.5 C 250.842,292.338 251.508,292.672 252.5,292.5C 253.952,293.302 255.618,293.802 257.5,294C 255.863,294.601 254.197,295.101 252.5,295.5C 251.977,294.196 250.643,293.529 248.5,293.5C 246.793,293.728 245.126,294.062 243.5,294.5C 242.5,293.833 241.5,293.167 240.5,292.5C 243.86,292.384 247.193,292.051 250.5,291.5 Z"/></g>
<g><path style="opacity:1" fill="#e9f2f6" d="M 337.5,304.5 C 339.924,304.192 342.257,304.526 344.5,305.5C 343.333,305.833 342.167,306.167 341,306.5C 339.319,306.392 338.152,305.725 337.5,304.5 Z"/></g>
<g><path style="opacity:1" fill="#2f5a89" d="M 141.5,268.5 C 142.568,269.434 143.901,269.768 145.5,269.5C 146.033,274.78 146.199,280.114 146,285.5C 147.255,286.211 148.421,287.044 149.5,288C 148.378,291.409 148.211,294.909 149,298.5C 150.76,295.073 151.926,291.406 152.5,287.5C 155.345,285.809 157.679,286.143 159.5,288.5C 157.064,286.983 154.898,287.316 153,289.5C 152.503,292.146 152.336,294.813 152.5,297.5C 154.167,297.5 155.833,297.5 157.5,297.5C 157.762,296.022 157.429,294.689 156.5,293.5C 155.808,294.025 155.308,294.692 155,295.5C 154.333,293.833 154.333,292.167 155,290.5C 156.183,289.269 157.349,289.269 158.5,290.5C 159.371,293.032 159.705,295.365 159.5,297.5C 160.466,295.604 160.799,293.604 160.5,291.5C 161.468,293.607 161.802,295.941 161.5,298.5C 157.833,298.5 154.167,298.5 150.5,298.5C 149.588,302.131 149.421,305.797 150,309.5C 151.375,307.063 151.875,304.397 151.5,301.5C 153.646,301.122 155.813,300.788 158,300.5C 159.681,300.608 160.848,301.275 161.5,302.5C 150.98,303.755 150.98,304.422 161.5,304.5C 161.389,305.117 161.056,305.617 160.5,306C 158.5,306.333 156.5,306.667 154.5,307C 155.833,307.333 157.167,307.667 158.5,308C 157.944,308.383 157.611,308.883 157.5,309.5C 156.791,310.404 155.791,310.737 154.5,310.5C 154.307,313.811 155.307,316.478 157.5,318.5C 157.216,320.415 157.549,322.081 158.5,323.5C 158.435,326.471 159.269,329.138 161,331.5C 159.899,324.113 160.899,323.78 164,330.5C 164.305,328.443 164.305,326.443 164,324.5C 164.902,326.431 166.069,328.097 167.5,329.5C 165.538,331.086 164.371,332.752 164,334.5C 160.414,333.976 156.581,333.643 152.5,333.5C 152.611,332.883 152.944,332.383 153.5,332C 151.845,330.556 151.178,328.722 151.5,326.5C 150.5,326.5 149.5,326.5 148.5,326.5C 148.44,325.957 148.107,325.624 147.5,325.5C 145.47,326.172 143.47,326.838 141.5,327.5C 141.169,325.678 140.502,324.011 139.5,322.5C 136.234,322.567 134.734,320.901 135,317.5C 133.455,318.821 132.289,318.488 131.5,316.5C 134.987,315.491 136.32,313.158 135.5,309.5C 134.167,309.5 132.833,309.5 131.5,309.5C 131.5,308.5 131.5,307.5 131.5,306.5C 132.5,306.5 133.5,306.5 134.5,306.5C 134.5,305.5 134.5,304.5 134.5,303.5C 136.833,303.5 139.167,303.5 141.5,303.5C 141.5,302.5 141.5,301.5 141.5,300.5C 138.351,300.789 135.351,300.289 132.5,299C 133.428,298.612 134.095,297.945 134.5,297C 131.175,295.042 130.842,292.709 133.5,290C 133.355,289.228 133.022,288.561 132.5,288C 134.043,285.298 136.376,284.132 139.5,284.5C 139.5,283.167 139.5,281.833 139.5,280.5C 140.859,281.007 141.859,282.007 142.5,283.5C 143.833,280.5 143.833,277.5 142.5,274.5C 141.614,275.325 141.281,276.325 141.5,277.5C 139.5,277.5 137.5,277.5 135.5,277.5C 137.042,276.837 138.709,276.17 140.5,275.5C 138.709,274.83 137.042,274.163 135.5,273.5C 138.167,273.5 140.833,273.5 143.5,273.5C 143.5,272.5 143.5,271.5 143.5,270.5C 142.127,270.657 140.793,270.49 139.5,270C 140.044,269.283 140.711,268.783 141.5,268.5 Z"/></g>
<g><path style="opacity:1" fill="#d8ecf2" d="M 142.5,300.5 C 144.453,303.24 144.786,306.24 143.5,309.5C 142.614,308.675 142.281,307.675 142.5,306.5C 134.5,305.833 134.5,305.167 142.5,304.5C 142.5,303.167 142.5,301.833 142.5,300.5 Z"/></g>
<g><path style="opacity:1" fill="#b6c7d0" d="M 135.5,297.5 C 138.247,297.187 140.914,297.52 143.5,298.5C 142.167,298.833 140.833,299.167 139.5,299.5C 137.667,299.415 136.334,298.748 135.5,297.5 Z"/></g>
<g><path style="opacity:1" fill="#cddde5" d="M 136.5,285.5 C 138.924,285.192 141.257,285.526 143.5,286.5C 141.604,287.466 139.604,287.799 137.5,287.5C 137.5,289.167 137.5,290.833 137.5,292.5C 139.604,292.201 141.604,292.534 143.5,293.5C 135.751,295.855 133.418,293.189 136.5,285.5 Z"/></g>
<g><path style="opacity:1" fill="#f8edae" d="M 297.5,297.5 C 297.5,300.5 297.5,303.5 297.5,306.5C 275.063,312.756 252.73,319.423 230.5,326.5C 228.564,322.285 227.897,317.619 228.5,312.5C 230.167,312.5 231.833,312.5 233.5,312.5C 236.902,312.658 240.236,312.324 243.5,311.5C 261.481,306.705 279.481,302.038 297.5,297.5 Z"/></g>
<g><path style="opacity:1" fill="#d3e4e9" d="M 360.5,308.5 C 360.215,306.712 360.548,305.045 361.5,303.5C 361.833,304 362.167,304.5 362.5,305C 361.713,307.099 361.38,309.266 361.5,311.5C 355.471,312.835 352.804,310.502 353.5,304.5C 354.222,304.082 354.722,303.416 355,302.5C 355.333,304.5 355.667,306.5 356,308.5C 357.668,302.044 358.835,302.378 359.5,309.5C 360.107,309.376 360.44,309.043 360.5,308.5 Z"/></g>
<g><path style="opacity:1" fill="#f9eead" d="M 190.5,251.5 C 190.333,268.17 190.5,284.837 191,301.5C 191.383,300.944 191.883,300.611 192.5,300.5C 193.167,301.5 193.833,302.5 194.5,303.5C 199.777,318.334 205.444,333.001 211.5,347.5C 209.405,346.588 207.405,345.421 205.5,344C 200.593,338.602 195.927,333.102 191.5,327.5C 188.735,320.964 186.235,314.297 184,307.5C 182.628,288.865 182.128,270.198 182.5,251.5C 185.167,247.5 187.833,247.5 190.5,251.5 Z"/></g>
<g><path style="opacity:0.337" fill="#362f36" d="M 382.5,196.5 C 383.167,231.5 383.833,266.5 384.5,301.5C 379.623,356.75 351.956,395.917 301.5,419C 240.042,440.585 187.542,427.418 144,379.5C 127.306,359.106 117.473,335.773 114.5,309.5C 115.167,310.167 115.833,310.833 116.5,311.5C 116.5,312.167 116.833,312.5 117.5,312.5C 117.335,315.518 117.502,318.518 118,321.5C 125.722,353.092 142.222,379.259 167.5,400C 207.504,428.362 250.838,434.696 297.5,419C 345.235,397.737 373.402,361.237 382,309.5C 382.5,271.835 382.667,234.168 382.5,196.5 Z"/></g>
<g><path style="opacity:1" fill="#d4e1e9" d="M 216.5,375.5 C 217.163,377.042 217.83,378.709 218.5,380.5C 219.869,378.876 221.536,378.376 223.5,379C 221.454,381.903 218.787,383.736 215.5,384.5C 216.413,377.435 214.913,376.768 211,382.5C 210.617,381.944 210.117,381.611 209.5,381.5C 209.187,378.753 209.52,376.086 210.5,373.5C 211.298,375.078 211.798,376.744 212,378.5C 213.129,376.859 214.629,375.859 216.5,375.5 Z"/></g>
<g><path style="opacity:1" fill="#d3e4ed" d="M 307.5,364.5 C 310.388,369.184 308.888,371.851 303,372.5C 298.077,371.228 297.243,368.561 300.5,364.5C 306.174,361.583 306.674,362.249 302,366.5C 301.51,367.793 301.343,369.127 301.5,370.5C 304.022,370.872 306.022,370.039 307.5,368C 303.592,368.1 303.592,366.933 307.5,364.5 Z"/></g>
<g><path style="opacity:1" fill="#d3e3ec" d="M 203.5,368.5 C 204.29,369.401 205.29,370.068 206.5,370.5C 206.631,371.376 206.298,372.043 205.5,372.5C 204.549,371.674 203.549,371.508 202.5,372C 201.845,373.487 200.845,374.653 199.5,375.5C 200.311,373.22 200.311,370.72 199.5,368C 200.819,367.805 202.153,367.972 203.5,368.5 Z"/></g>
<g><path style="opacity:1" fill="#d6e4eb" d="M 327.5,375.5 C 327.5,373.833 327.5,372.167 327.5,370.5C 325.585,370.784 323.919,370.451 322.5,369.5C 323.919,368.549 325.585,368.216 327.5,368.5C 327.833,361.833 328.167,361.833 328.5,368.5C 330.288,368.215 331.955,368.548 333.5,369.5C 332.311,370.429 330.978,370.762 329.5,370.5C 329.88,372.698 329.213,374.365 327.5,375.5 Z"/></g>
<g><path style="opacity:1" fill="#ccdde8" d="M 170.5,375.5 C 167.52,374.171 166.187,371.837 166.5,368.5C 168.305,367.763 169.971,366.763 171.5,365.5C 171.833,365.833 172.167,366.167 172.5,366.5C 171.249,367.631 170.249,368.964 169.5,370.5C 169.434,372.266 170.268,373.266 172,373.5C 173.626,372.711 175.126,371.711 176.5,370.5C 177.282,372.329 176.616,373.829 174.5,375C 173.207,375.49 171.873,375.657 170.5,375.5 Z"/></g>
<g><path style="opacity:1" fill="#2f5a8a" d="M 170.5,340.5 C 172.396,348.472 171.396,349.139 167.5,342.5C 167.403,344.834 168.403,347 170.5,349C 171.448,349.483 172.448,349.649 173.5,349.5C 173.25,346.786 173.083,344.119 173,341.5C 174.252,343.001 175.252,344.668 176,346.5C 176.636,342.296 174.803,339.963 170.5,339.5C 170.62,338.414 171.287,337.747 172.5,337.5C 174.13,338.421 175.797,339.255 177.5,340C 177.167,340.333 176.833,340.667 176.5,341C 177.793,341.49 179.127,341.657 180.5,341.5C 180.762,342.978 180.429,344.311 179.5,345.5C 178.167,346.167 177.167,347.167 176.5,348.5C 178.291,349.17 179.958,349.837 181.5,350.5C 177,350.164 175.167,352.164 176,356.5C 177.5,358 179,359.5 180.5,361C 181.928,361.579 183.262,361.412 184.5,360.5C 184.821,362.048 185.821,362.715 187.5,362.5C 186.782,364.137 186.616,365.803 187,367.5C 188.908,365.093 190.908,365.093 193,367.5C 193.5,367.333 194,367.167 194.5,367C 193.421,366.044 192.255,365.211 191,364.5C 190.312,363.668 190.479,363.002 191.5,362.5C 192.916,364.139 194.583,364.973 196.5,365C 195.29,363.961 194.29,362.794 193.5,361.5C 196.469,360.671 199.469,360.505 202.5,361C 199.099,360.734 197.433,362.234 197.5,365.5C 200.313,365.025 202.313,366.025 203.5,368.5C 202.153,367.972 200.819,367.805 199.5,368C 200.311,370.72 200.311,373.22 199.5,375.5C 200.845,374.653 201.845,373.487 202.5,372C 203.549,371.508 204.549,371.674 205.5,372.5C 206.298,372.043 206.631,371.376 206.5,370.5C 210.183,371.675 213.516,373.341 216.5,375.5C 214.629,375.859 213.129,376.859 212,378.5C 211.798,376.744 211.298,375.078 210.5,373.5C 209.52,376.086 209.187,378.753 209.5,381.5C 208.017,379.906 206.517,378.24 205,376.5C 203.294,377.308 202.461,378.641 202.5,380.5C 203.978,380.238 205.311,380.571 206.5,381.5C 205.703,383.132 204.703,384.632 203.5,386C 204.904,388.527 206.904,390.36 209.5,391.5C 207.665,392.122 206.498,393.456 206,395.5C 205.426,392.681 204.093,390.348 202,388.5C 200.229,389.347 199.063,390.68 198.5,392.5C 194.57,394.012 191.237,393.345 188.5,390.5C 187.034,389.653 186.2,388.32 186,386.5C 184.134,389.159 182.967,388.826 182.5,385.5C 183.117,385.611 183.617,385.944 184,386.5C 185.743,384.679 187.243,382.679 188.5,380.5C 187.998,379.479 187.332,379.312 186.5,380C 185.267,381.667 183.933,383.167 182.5,384.5C 181.005,384.011 179.671,383.345 178.5,382.5C 180.018,379.25 182.351,377.916 185.5,378.5C 183.5,376.833 181.5,375.167 179.5,373.5C 180.226,376.463 179.226,378.963 176.5,381C 177.056,381.383 177.389,381.883 177.5,382.5C 176.325,382.719 175.325,382.386 174.5,381.5C 175.428,380.232 175.595,378.899 175,377.5C 173.644,378.38 172.144,378.714 170.5,378.5C 170.5,377.5 170.5,376.5 170.5,375.5C 171.873,375.657 173.207,375.49 174.5,375C 176.616,373.829 177.282,372.329 176.5,370.5C 175.126,371.711 173.626,372.711 172,373.5C 170.268,373.266 169.434,372.266 169.5,370.5C 170.249,368.964 171.249,367.631 172.5,366.5C 172.167,366.167 171.833,365.833 171.5,365.5C 169.971,366.763 168.305,367.763 166.5,368.5C 166.062,367.494 165.396,367.494 164.5,368.5C 164.123,366.742 163.456,365.075 162.5,363.5C 163.857,361.814 165.19,360.148 166.5,358.5C 164.551,354.396 163.051,350.063 162,345.5C 161.005,344.934 160.172,344.267 159.5,343.5C 162.133,342.189 162.133,340.689 159.5,339C 162.668,336.825 164.835,337.659 166,341.5C 167.356,340.62 168.856,340.286 170.5,340.5 Z"/></g>
<g><path style="opacity:1" fill="#d2e4ed" d="M 166.5,358.5 C 165.19,360.148 163.857,361.814 162.5,363.5C 163.456,365.075 164.123,366.742 164.5,368.5C 163.167,367.5 161.833,366.5 160.5,365.5C 159.374,364.142 159.374,362.808 160.5,361.5C 162.149,360.352 163.649,359.019 165,357.5C 165.383,358.056 165.883,358.389 166.5,358.5 Z"/></g>
<g><path style="opacity:1" fill="#c1d6e2" d="M 309.5,357.5 C 313.323,358.609 314.99,360.943 314.5,364.5C 311.61,362.957 309.943,360.624 309.5,357.5 Z"/></g>
<g><path style="opacity:1" fill="#d2e4ed" d="M 193.5,361.5 C 194.29,362.794 195.29,363.961 196.5,365C 194.583,364.973 192.916,364.139 191.5,362.5C 190.479,363.002 190.312,363.668 191,364.5C 192.255,365.211 193.421,366.044 194.5,367C 194,367.167 193.5,367.333 193,367.5C 190.908,365.093 188.908,365.093 187,367.5C 186.616,365.803 186.782,364.137 187.5,362.5C 189.249,360.469 191.249,360.135 193.5,361.5 Z"/></g>
<g><path style="opacity:1" fill="#d9e7ef" d="M 341.5,360.5 C 335.345,362.672 333.012,360.672 334.5,354.5C 335.794,353.71 336.961,352.71 338,351.5C 337.581,353.503 336.747,355.503 335.5,357.5C 335.887,358.72 336.72,359.387 338,359.5C 339.944,358.561 341.611,357.227 343,355.5C 343.122,357.282 342.622,358.948 341.5,360.5 Z"/></g>
<g><path style="opacity:1" fill="#3d2d28" d="M 225.5,356.5 C 241.176,360.499 256.843,360.499 272.5,356.5C 264.9,360.237 256.734,361.904 248,361.5C 239.911,361.918 232.411,360.252 225.5,356.5 Z"/></g>
<g><path style="opacity:1" fill="#d7e5ed" d="M 156.5,359.5 C 155.5,358.167 154.5,356.833 153.5,355.5C 153.925,347.636 156.759,346.636 162,352.5C 163.328,357.338 161.494,359.671 156.5,359.5 Z"/></g>
<g><path style="opacity:1" fill="#342920" d="M 284.5,350.5 C 281.367,354.067 277.367,356.067 272.5,356.5C 276.182,353.992 280.182,351.992 284.5,350.5 Z"/></g>
<g><path style="opacity:1" fill="#d2dfea" d="M 181.5,350.5 C 183.7,352.207 185.366,354.373 186.5,357C 186.022,358.303 185.355,359.469 184.5,360.5C 183.262,361.412 181.928,361.579 180.5,361C 179,359.5 177.5,358 176,356.5C 175.167,352.164 177,350.164 181.5,350.5 Z"/></g>
<g><path style="opacity:1" fill="#3d6286" d="M 178.5,352.5 C 182.314,352.651 183.981,354.651 183.5,358.5C 178.756,358.772 177.089,356.772 178.5,352.5 Z"/></g>
<g><path style="opacity:1" fill="#2e5c86" d="M 155.5,351.5 C 159.151,351.162 160.817,352.828 160.5,356.5C 156.247,356.92 154.58,355.254 155.5,351.5 Z"/></g>
<g><path style="opacity:1" fill="#d4e4ed" d="M 319.5,346.5 C 329.192,351.305 328.526,353.805 317.5,354C 318.579,354.956 319.745,355.789 321,356.5C 321.688,357.332 321.521,357.998 320.5,358.5C 312.105,353.779 312.771,351.279 322.5,351C 320.859,349.871 319.859,348.371 319.5,346.5 Z"/></g>
<g><path style="opacity:1" fill="#d3e1ea" d="M 345.5,350.5 C 345.833,351.167 346.167,351.833 346.5,352.5C 343.787,352.993 341.454,351.993 339.5,349.5C 340.274,348.289 341.107,348.289 342,349.5C 342.635,348.034 343.469,346.7 344.5,345.5C 343.833,344.5 343.167,343.5 342.5,342.5C 345.376,342.243 348.043,343.243 350.5,345.5C 349.224,346.645 347.891,346.645 346.5,345.5C 344.621,347.07 344.288,348.736 345.5,350.5 Z"/></g>
<g><path style="opacity:1" fill="#c5dde5" d="M 148.5,347.5 C 147.711,346.085 147.044,344.585 146.5,343C 146.836,341.97 147.503,341.47 148.5,341.5C 148.284,343.681 149.117,345.347 151,346.5C 150.793,344.249 150.627,341.915 150.5,339.5C 155.36,339.553 157.026,341.886 155.5,346.5C 154.813,344.726 153.98,343.059 153,341.5C 153.155,343.811 153.155,346.144 153,348.5C 151.289,349.581 149.789,349.248 148.5,347.5 Z"/></g>
<g><path style="opacity:1" fill="#d5e8ef" d="M 170.5,339.5 C 174.803,339.963 176.636,342.296 176,346.5C 175.252,344.668 174.252,343.001 173,341.5C 173.083,344.119 173.25,346.786 173.5,349.5C 172.448,349.649 171.448,349.483 170.5,349C 168.403,347 167.403,344.834 167.5,342.5C 171.396,349.139 172.396,348.472 170.5,340.5C 170.5,340.167 170.5,339.833 170.5,339.5 Z"/></g>
<g><path style="opacity:1" fill="#dbe9ef" d="M 333.5,338.5 C 333.237,344.299 330.571,346.132 325.5,344C 324.177,343.184 323.511,342.017 323.5,340.5C 325.054,339.086 326.388,337.419 327.5,335.5C 327.833,335.833 328.167,336.167 328.5,336.5C 324.604,342.47 325.104,342.803 330,337.5C 330.14,339.256 329.64,340.922 328.5,342.5C 328.833,342.833 329.167,343.167 329.5,343.5C 330.612,341.581 331.946,339.914 333.5,338.5 Z"/></g>
<g><path style="opacity:1" fill="#362623" d="M 304.5,331.5 C 299.747,339.921 293.081,346.254 284.5,350.5C 291.798,344.869 298.465,338.536 304.5,331.5 Z"/></g>
<g><path style="opacity:1" fill="#cfdde7" d="M 352.5,338.5 C 351.375,339.348 351.375,340.348 352.5,341.5C 351.883,341.611 351.383,341.944 351,342.5C 343.175,335.155 344.675,332.488 355.5,334.5C 354.675,335.386 353.675,335.719 352.5,335.5C 352.5,336.5 352.5,337.5 352.5,338.5 Z"/></g>
<g><path style="opacity:1" fill="#375e84" d="M 148.5,326.5 C 149.5,326.5 150.5,326.5 151.5,326.5C 151.178,328.722 151.845,330.556 153.5,332C 152.944,332.383 152.611,332.883 152.5,333.5C 151.657,335.173 150.324,336.34 148.5,337C 150.623,338.194 152.957,338.86 155.5,339C 156.733,340.667 158.067,342.167 159.5,343.5C 160.172,344.267 161.005,344.934 162,345.5C 163.051,350.063 164.551,354.396 166.5,358.5C 165.883,358.389 165.383,358.056 165,357.5C 163.649,359.019 162.149,360.352 160.5,361.5C 159.374,362.808 159.374,364.142 160.5,365.5C 158.972,363.721 157.638,361.721 156.5,359.5C 161.494,359.671 163.328,357.338 162,352.5C 156.759,346.636 153.925,347.636 153.5,355.5C 152.549,354.081 152.216,352.415 152.5,350.5C 150.027,350.912 148.694,349.912 148.5,347.5C 149.789,349.248 151.289,349.581 153,348.5C 153.155,346.144 153.155,343.811 153,341.5C 153.98,343.059 154.813,344.726 155.5,346.5C 157.026,341.886 155.36,339.553 150.5,339.5C 150.627,341.915 150.793,344.249 151,346.5C 149.117,345.347 148.284,343.681 148.5,341.5C 149.043,341.44 149.376,341.107 149.5,340.5C 147.887,339.573 146.221,338.739 144.5,338C 144.833,337.667 145.167,337.333 145.5,337C 144.128,336.598 142.795,336.098 141.5,335.5C 140.2,332.691 140.2,330.024 141.5,327.5C 141.721,330.392 142.554,333.059 144,335.5C 144,333.5 144,331.5 144,329.5C 145,330.833 146,332.167 147,333.5C 147,331.5 147,329.5 147,327.5C 147.815,329.623 148.815,331.623 150,333.5C 150.609,330.935 150.109,328.601 148.5,326.5 Z"/></g>
<g><path style="opacity:1" fill="#365c88" d="M 342.5,315.5 C 342.196,316.15 341.863,316.817 341.5,317.5C 342.747,319.323 343.414,321.323 343.5,323.5C 341.473,323.338 339.473,323.505 337.5,324C 338.624,324.249 339.624,324.749 340.5,325.5C 340.583,330.86 343.25,332.86 348.5,331.5C 348.762,330.022 348.429,328.689 347.5,327.5C 346.604,328.506 345.938,328.506 345.5,327.5C 348.768,326.513 352.102,326.18 355.5,326.5C 355.53,327.497 355.03,328.164 354,328.5C 352.422,327.453 350.922,327.453 349.5,328.5C 351.487,330.327 353.821,331.327 356.5,331.5C 356.263,330.209 356.596,329.209 357.5,328.5C 358.907,333.246 357.24,336.58 352.5,338.5C 352.5,337.5 352.5,336.5 352.5,335.5C 353.675,335.719 354.675,335.386 355.5,334.5C 344.675,332.488 343.175,335.155 351,342.5C 351.383,341.944 351.883,341.611 352.5,341.5C 351.781,343.764 351.448,346.097 351.5,348.5C 348.918,348.025 346.918,348.692 345.5,350.5C 344.288,348.736 344.621,347.07 346.5,345.5C 347.891,346.645 349.224,346.645 350.5,345.5C 348.043,343.243 345.376,342.243 342.5,342.5C 343.167,343.5 343.833,344.5 344.5,345.5C 343.469,346.7 342.635,348.034 342,349.5C 341.107,348.289 340.274,348.289 339.5,349.5C 341.454,351.993 343.787,352.993 346.5,352.5C 344.954,354.882 344.287,357.549 344.5,360.5C 343.5,360.5 342.5,360.5 341.5,360.5C 342.622,358.948 343.122,357.282 343,355.5C 341.611,357.227 339.944,358.561 338,359.5C 336.72,359.387 335.887,358.72 335.5,357.5C 336.747,355.503 337.581,353.503 338,351.5C 336.961,352.71 335.794,353.71 334.5,354.5C 334.961,352.084 336.294,350.25 338.5,349C 337.978,348.05 337.311,347.216 336.5,346.5C 338.576,345.9 340.576,345.567 342.5,345.5C 340.742,343.349 339.076,341.183 337.5,339C 337.957,338.586 338.291,338.086 338.5,337.5C 336.172,336.176 333.839,334.843 331.5,333.5C 331.167,334 330.833,334.5 330.5,335C 331.544,336.174 332.544,337.341 333.5,338.5C 331.946,339.914 330.612,341.581 329.5,343.5C 329.167,343.167 328.833,342.833 328.5,342.5C 329.64,340.922 330.14,339.256 330,337.5C 325.104,342.803 324.604,342.47 328.5,336.5C 328.167,336.167 327.833,335.833 327.5,335.5C 326.388,337.419 325.054,339.086 323.5,340.5C 324.605,338.287 324.605,336.12 323.5,334C 324.966,333.365 326.3,332.531 327.5,331.5C 328.001,329.345 329.001,327.678 330.5,326.5C 330.5,325.167 330.5,323.833 330.5,322.5C 331.5,322.5 332.5,322.5 333.5,322.5C 333.5,321.5 333.5,320.5 333.5,319.5C 336.145,320.84 338.812,321.174 341.5,320.5C 338.577,318.039 338.911,316.372 342.5,315.5 Z"/></g>
<g><path style="opacity:1" fill="#d8e9ef" d="M 330.5,326.5 C 331.151,325.909 331.818,325.243 332.5,324.5C 332.833,324.833 333.167,325.167 333.5,325.5C 332.572,326.768 332.405,328.101 333,329.5C 333.583,327.998 334.416,326.665 335.5,325.5C 335.5,327.5 335.5,329.5 335.5,331.5C 336.684,329.954 337.684,328.287 338.5,326.5C 339.32,332.941 336.653,334.774 330.5,332C 329.862,330.293 329.862,328.46 330.5,326.5 Z"/></g>
<g><path style="opacity:1" fill="#382a2b" d="M 191.5,327.5 C 195.927,333.102 200.593,338.602 205.5,344C 207.405,345.421 209.405,346.588 211.5,347.5C 213.852,350.184 216.518,352.518 219.5,354.5C 217.821,354.108 216.154,353.608 214.5,353C 206.065,346.9 198.565,339.733 192,331.5C 191.51,330.207 191.343,328.873 191.5,327.5 Z"/></g>
<g><path style="opacity:1" fill="#cee2e8" d="M 357.5,328.5 C 356.596,329.209 356.263,330.209 356.5,331.5C 353.821,331.327 351.487,330.327 349.5,328.5C 350.922,327.453 352.422,327.453 354,328.5C 355.03,328.164 355.53,327.497 355.5,326.5C 355.908,325.357 356.575,324.357 357.5,323.5C 358.434,325.095 358.434,326.761 357.5,328.5 Z"/></g>
<g><path style="opacity:1" fill="#d2e5eb" d="M 148.5,326.5 C 150.109,328.601 150.609,330.935 150,333.5C 148.815,331.623 147.815,329.623 147,327.5C 147,329.5 147,331.5 147,333.5C 146,332.167 145,330.833 144,329.5C 144,331.5 144,333.5 144,335.5C 142.554,333.059 141.721,330.392 141.5,327.5C 143.47,326.838 145.47,326.172 147.5,325.5C 148.107,325.624 148.44,325.957 148.5,326.5 Z"/></g>
<g><path style="opacity:1" fill="#927d5a" d="M 233.5,312.5 C 231.833,312.5 230.167,312.5 228.5,312.5C 227.897,317.619 228.564,322.285 230.5,326.5C 229.791,327.404 228.791,327.737 227.5,327.5C 227.5,322.167 227.5,316.833 227.5,311.5C 229.735,311.205 231.735,311.539 233.5,312.5 Z"/></g>
<g><path style="opacity:1" fill="#f9efad" d="M 304.5,331.5 C 298.465,338.536 291.798,344.869 284.5,350.5C 280.182,351.992 276.182,353.992 272.5,356.5C 256.843,360.499 241.176,360.499 225.5,356.5C 224.571,355.685 223.571,354.852 222.5,354C 252.327,341.834 281.827,329.001 311,315.5C 309.699,321.114 307.532,326.447 304.5,331.5 Z"/></g>
<g><path style="opacity:1" fill="#d6e7ef" d="M 167.5,329.5 C 166.069,328.097 164.902,326.431 164,324.5C 164.305,326.443 164.305,328.443 164,330.5C 160.899,323.78 159.899,324.113 161,331.5C 159.269,329.138 158.435,326.471 158.5,323.5C 160.55,323.039 162.55,322.372 164.5,321.5C 166.287,323.858 167.287,326.525 167.5,329.5 Z"/></g>
<g><path style="opacity:1" fill="#cedfe5" d="M 139.5,322.5 C 138.697,321.577 138.53,320.577 139,319.5C 140.708,317.457 142.708,315.79 145,314.5C 145.167,315 145.333,315.5 145.5,316C 144.004,317.331 142.671,318.831 141.5,320.5C 143.396,321.466 145.396,321.799 147.5,321.5C 147.649,322.552 147.483,323.552 147,324.5C 144.564,323.645 142.064,322.979 139.5,322.5 Z"/></g>
<g><path style="opacity:1" fill="#dfebf3" d="M 359.5,314.5 C 360.754,316.357 360.754,318.357 359.5,320.5C 356.597,321.904 353.93,321.571 351.5,319.5C 353.771,318.637 356.105,318.637 358.5,319.5C 358.366,317.708 358.699,316.042 359.5,314.5 Z"/></g>
<g><path style="opacity:1" fill="#d1e2e9" d="M 342.5,315.5 C 338.911,316.372 338.577,318.039 341.5,320.5C 338.812,321.174 336.145,320.84 333.5,319.5C 334.009,316.808 335.009,314.308 336.5,312C 338.464,311.376 340.131,311.876 341.5,313.5C 342.086,313.291 342.586,312.957 343,312.5C 343.74,313.749 343.573,314.749 342.5,315.5 Z"/></g>
<g><path style="opacity:1" fill="#4e6781" d="M 337.5,313.5 C 338.782,314.708 338.782,316.042 337.5,317.5C 336.374,316.192 336.374,314.858 337.5,313.5 Z"/></g>
<g><path style="opacity:1" fill="#bba580" d="M 225.5,311.5 C 225.833,311.5 226.167,311.5 226.5,311.5C 226.827,316.544 226.494,321.544 225.5,326.5C 224.893,326.376 224.56,326.043 224.5,325.5C 225.486,321.03 225.819,316.363 225.5,311.5 Z"/></g>
<g><path style="opacity:1" fill="#dcecf2" d="M 141.5,310.5 C 142.978,310.238 144.311,310.571 145.5,311.5C 143.07,313.571 140.403,313.904 137.5,312.5C 138.949,311.828 140.282,311.161 141.5,310.5 Z"/></g>
<g><path style="opacity:1" fill="#d5e7ef" d="M 157.5,309.5 C 159.288,309.215 160.955,309.548 162.5,310.5C 160.328,311.205 158.328,312.205 156.5,313.5C 157.309,315.071 157.643,316.738 157.5,318.5C 155.307,316.478 154.307,313.811 154.5,310.5C 155.791,310.737 156.791,310.404 157.5,309.5 Z"/></g>
<g><path style="opacity:1" fill="#305b89" d="M 300.5,364.5 C 297.243,368.561 298.077,371.228 303,372.5C 308.888,371.851 310.388,369.184 307.5,364.5C 309.797,365.835 311.797,367.668 313.5,370C 316.592,370.736 319.592,370.569 322.5,369.5C 323.919,370.451 325.585,370.784 327.5,370.5C 327.5,372.167 327.5,373.833 327.5,375.5C 327.714,377.144 327.38,378.644 326.5,380C 323.458,381.558 320.458,383.058 317.5,384.5C 317.631,383.761 317.464,383.094 317,382.5C 313.53,386.469 310.863,385.802 309,380.5C 308.5,381 308,381.5 307.5,382C 308.833,383.667 310.167,385.333 311.5,387C 313.066,387.3 314.399,386.8 315.5,385.5C 315.5,386.5 315.5,387.5 315.5,388.5C 312.763,388.599 310.096,388.265 307.5,387.5C 307.853,385.365 307.02,384.032 305,383.5C 297.919,384.911 296.752,388.245 301.5,393.5C 300.839,394.718 300.172,396.051 299.5,397.5C 298.893,397.376 298.56,397.043 298.5,396.5C 298.986,393.245 297.986,390.578 295.5,388.5C 294.482,389.193 293.482,389.859 292.5,390.5C 292.598,389.118 292.598,387.618 292.5,386C 294.134,385.506 295.801,385.34 297.5,385.5C 297.5,384.5 297.5,383.5 297.5,382.5C 293.491,383.614 289.491,383.614 285.5,382.5C 284.261,382.942 283.261,383.609 282.5,384.5C 282.631,383.624 282.298,382.957 281.5,382.5C 279.831,383.89 278.164,384.223 276.5,383.5C 278.046,382.316 279.713,381.316 281.5,380.5C 279.657,380.245 277.657,380.078 275.5,380C 276.872,379.598 278.205,379.098 279.5,378.5C 280.773,377.743 280.773,377.077 279.5,376.5C 279.5,375.5 279.5,374.5 279.5,373.5C 283.151,373.254 286.651,373.254 290,373.5C 290.236,371.881 291.069,370.881 292.5,370.5C 293.486,368.484 295.153,367.151 297.5,366.5C 296.311,365.571 294.978,365.238 293.5,365.5C 293.5,364.167 293.5,362.833 293.5,361.5C 294.833,361.5 296.167,361.5 297.5,361.5C 297.5,362.5 297.5,363.5 297.5,364.5C 298.5,364.5 299.5,364.5 300.5,364.5 Z"/></g>
<g><path style="opacity:1" fill="#d1e2ec" d="M 319.5,371.5 C 320.552,371.351 321.552,371.517 322.5,372C 321.315,373.353 319.981,374.52 318.5,375.5C 320.113,375.968 321.613,375.301 323,373.5C 323.167,373.833 323.333,374.167 323.5,374.5C 319.448,379.912 319.782,380.412 324.5,376C 325.332,375.312 325.998,375.479 326.5,376.5C 322.417,383.228 318.751,383.062 315.5,376C 317.018,374.649 318.351,373.149 319.5,371.5 Z"/></g>
<g><path style="opacity:1" fill="#deecf2" d="M 292.5,370.5 C 294.247,372.428 295.913,374.594 297.5,377C 294.887,378.555 292.221,378.389 289.5,376.5C 289.331,378.117 288.997,379.784 288.5,381.5C 287.123,379.711 286.123,377.711 285.5,375.5C 288.212,374.933 290.879,374.599 293.5,374.5C 292.754,373.264 292.421,371.93 292.5,370.5 Z"/></g>
<g><path style="opacity:1" fill="#dbe9ef" d="M 178.5,382.5 C 178.167,382.5 177.833,382.5 177.5,382.5C 177.389,381.883 177.056,381.383 176.5,381C 179.226,378.963 180.226,376.463 179.5,373.5C 181.5,375.167 183.5,376.833 185.5,378.5C 182.351,377.916 180.018,379.25 178.5,382.5 Z"/></g>
<g><path style="opacity:1" fill="#d4e7ee" d="M 279.5,376.5 C 280.773,377.077 280.773,377.743 279.5,378.5C 278.205,379.098 276.872,379.598 275.5,380C 277.657,380.078 279.657,380.245 281.5,380.5C 279.713,381.316 278.046,382.316 276.5,383.5C 278.164,384.223 279.831,383.89 281.5,382.5C 282.298,382.957 282.631,383.624 282.5,384.5C 280.135,385.008 277.801,385.675 275.5,386.5C 271.652,380.959 272.985,377.626 279.5,376.5 Z"/></g>
<g><path style="opacity:1" fill="#d4e6ef" d="M 182.5,385.5 C 182.5,385.167 182.5,384.833 182.5,384.5C 183.933,383.167 185.267,381.667 186.5,380C 187.332,379.312 187.998,379.479 188.5,380.5C 187.243,382.679 185.743,384.679 184,386.5C 183.617,385.944 183.117,385.611 182.5,385.5 Z"/></g>
<g><path style="opacity:1" fill="#c6d6dd" d="M 229.5,379.5 C 230.5,379.5 231.5,379.5 232.5,379.5C 232.855,382.067 233.521,384.567 234.5,387C 234.167,387.5 233.833,388 233.5,388.5C 230.719,386.225 227.719,385.391 224.5,386C 226.539,384.074 228.206,381.907 229.5,379.5 Z"/></g>
<g><path style="opacity:1" fill="#d7e7ee" d="M 188.5,390.5 C 186.122,385.067 187.788,382.567 193.5,383C 198.215,384.613 199.215,387.28 196.5,391C 193.779,391.602 191.113,391.435 188.5,390.5 Z"/></g>
<g><path style="opacity:1" fill="#d2e1e7" d="M 253.5,381.5 C 256.247,381.187 258.914,381.52 261.5,382.5C 259.922,383.298 258.256,383.798 256.5,384C 263.078,384.885 263.078,386.052 256.5,387.5C 258.312,387.426 260.312,387.759 262.5,388.5C 254.668,392.679 251.668,390.345 253.5,381.5 Z"/></g>
<g><path style="opacity:1" fill="#d4e3eb" d="M 307.5,387.5 C 305.111,389.222 303.111,391.222 301.5,393.5C 296.752,388.245 297.919,384.911 305,383.5C 307.02,384.032 307.853,385.365 307.5,387.5 Z"/></g>
<g><path style="opacity:1" fill="#cedfe5" d="M 239.5,381.5 C 242.448,381.223 245.281,381.556 248,382.5C 247.681,384.743 247.848,386.91 248.5,389C 246.326,388.063 243.993,387.229 241.5,386.5C 241.719,387.675 241.386,388.675 240.5,389.5C 239.52,386.914 239.187,384.247 239.5,381.5 Z"/></g>
<g><path style="opacity:1" fill="#ddeaf2" d="M 317.5,384.5 C 316.833,384.833 316.167,385.167 315.5,385.5C 314.399,386.8 313.066,387.3 311.5,387C 310.167,385.333 308.833,383.667 307.5,382C 308,381.5 308.5,381 309,380.5C 310.863,385.802 313.53,386.469 317,382.5C 317.464,383.094 317.631,383.761 317.5,384.5 Z"/></g>
<g><path style="opacity:1" fill="#395c83" d="M 190.5,384.5 C 195.159,384.015 196.492,385.848 194.5,390C 190.229,390.235 188.896,388.402 190.5,384.5 Z"/></g>
<g><path style="opacity:1" fill="#495f7d" d="M 303.5,385.5 C 304.376,385.369 305.043,385.702 305.5,386.5C 301.478,390.702 300.812,390.369 303.5,385.5 Z"/></g>
<g><path style="opacity:1" fill="#335d86" d="M 242.5,398.5 C 237.164,397.185 234.497,399.185 234.5,404.5C 232.126,403.314 229.792,403.314 227.5,404.5C 228.589,402.883 230.256,402.05 232.5,402C 231.241,401.077 229.908,400.243 228.5,399.5C 230.117,399.331 231.784,398.997 233.5,398.5C 231.067,396.946 228.4,396.28 225.5,396.5C 225.599,399.237 225.265,401.904 224.5,404.5C 223.418,402.673 223.418,400.673 224.5,398.5C 221.391,393.124 220.224,393.457 221,399.5C 220.667,398.833 220.333,398.167 220,397.5C 219.95,399.744 219.117,401.411 217.5,402.5C 219.051,398.838 217.718,396.672 213.5,396C 215.5,396 217.5,396 219.5,396C 217.559,394.097 215.226,393.264 212.5,393.5C 215.005,392.503 217.672,392.503 220.5,393.5C 220.5,392.5 220.5,391.5 220.5,390.5C 225.133,393.042 230.133,394.375 235.5,394.5C 235.5,395.5 235.5,396.5 235.5,397.5C 238.059,397.198 240.393,397.532 242.5,398.5 Z"/></g>
<g><path style="opacity:1" fill="#d5e6eb" d="M 209.5,391.5 C 210.167,391.5 210.5,391.833 210.5,392.5C 208.992,394.181 207.992,396.181 207.5,398.5C 206.5,398.5 205.5,398.5 204.5,398.5C 204.245,395.984 203.411,393.65 202,391.5C 201.077,392.759 200.243,394.092 199.5,395.5C 198.614,394.675 198.281,393.675 198.5,392.5C 199.063,390.68 200.229,389.347 202,388.5C 204.093,390.348 205.426,392.681 206,395.5C 206.498,393.456 207.665,392.122 209.5,391.5 Z"/></g>
<g><path style="opacity:1" fill="#cee2ea" d="M 276.5,394.5 C 281.993,393.178 284.493,395.178 284,400.5C 279.765,404.827 276.265,404.494 273.5,399.5C 274.092,397.577 275.092,395.911 276.5,394.5 Z"/></g>
<g><path style="opacity:1" fill="#d7e7ed" d="M 298.5,396.5 C 297.069,395.097 295.902,393.431 295,391.5C 294.505,393.473 294.338,395.473 294.5,397.5C 292.278,397.822 290.444,397.155 289,395.5C 288.508,396.549 288.674,397.549 289.5,398.5C 289.192,399.308 288.692,399.975 288,400.5C 286.864,397.904 286.031,395.237 285.5,392.5C 288.099,392.549 290.266,393.549 292,395.5C 292.494,393.866 292.66,392.199 292.5,390.5C 293.482,389.859 294.482,389.193 295.5,388.5C 297.986,390.578 298.986,393.245 298.5,396.5 Z"/></g>
<g><path style="opacity:1" fill="#d8e7ee" d="M 211.5,393.5 C 211.833,393.5 212.167,393.5 212.5,393.5C 215.226,393.264 217.559,394.097 219.5,396C 217.5,396 215.5,396 213.5,396C 217.718,396.672 219.051,398.838 217.5,402.5C 215.379,402.675 213.379,402.341 211.5,401.5C 210.697,400.577 210.53,399.577 211,398.5C 212.599,400.036 214.433,400.536 216.5,400C 215.335,398.916 214.002,398.083 212.5,397.5C 211.571,396.311 211.238,394.978 211.5,393.5 Z"/></g>
<g><path style="opacity:1" fill="#436381" d="M 210.5,392.5 C 211.167,392.5 211.5,392.833 211.5,393.5C 211.238,394.978 211.571,396.311 212.5,397.5C 214.002,398.083 215.335,398.916 216.5,400C 214.433,400.536 212.599,400.036 211,398.5C 210.53,399.577 210.697,400.577 211.5,401.5C 210.883,401.611 210.383,401.944 210,402.5C 209.878,400.563 209.045,399.23 207.5,398.5C 207.992,396.181 208.992,394.181 210.5,392.5 Z"/></g>
<g><path style="opacity:1" fill="#355c86" d="M 277.5,396.5 C 278.833,396.5 280.167,396.5 281.5,396.5C 282.085,399.261 281.085,400.927 278.5,401.5C 275.031,400.431 274.698,398.764 277.5,396.5 Z"/></g>
<g><path style="opacity:1" fill="#d3e4eb" d="M 247.5,398.5 C 249.857,398.337 252.19,398.503 254.5,399C 257.167,400.667 257.167,402.333 254.5,404C 256.26,404.965 256.594,406.132 255.5,407.5C 253.929,405.585 251.929,404.585 249.5,404.5C 249.719,405.675 249.386,406.675 248.5,407.5C 247.516,404.572 247.183,401.572 247.5,398.5 Z"/></g>
<g><path style="opacity:1" fill="#637493" d="M 249.5,400.5 C 250.978,400.238 252.311,400.571 253.5,401.5C 252.833,401.833 252.167,402.167 251.5,402.5C 250.287,402.253 249.62,401.586 249.5,400.5 Z"/></g>
<g><path style="opacity:1" fill="#d3e1eb" d="M 264.5,397.5 C 266.857,397.337 269.19,397.503 271.5,398C 269.392,398.36 267.392,399.027 265.5,400C 264.167,401 264.167,402 265.5,403C 267.995,403.157 270.328,403.324 272.5,403.5C 270.133,405.395 267.466,405.895 264.5,405C 261.914,402.506 261.914,400.006 264.5,397.5 Z"/></g>
<g><path style="opacity:1" fill="#c9dde8" d="M 227.5,404.5 C 226.5,404.5 225.5,404.5 224.5,404.5C 225.265,401.904 225.599,399.237 225.5,396.5C 228.4,396.28 231.067,396.946 233.5,398.5C 231.784,398.997 230.117,399.331 228.5,399.5C 229.908,400.243 231.241,401.077 232.5,402C 230.256,402.05 228.589,402.883 227.5,404.5 Z"/></g>
<g><path style="opacity:1" fill="#d8e9f0" d="M 242.5,398.5 C 247.028,404.6 245.361,407.433 237.5,407C 236.058,406.623 235.058,405.79 234.5,404.5C 234.497,399.185 237.164,397.185 242.5,398.5 Z"/></g>
<g><path style="opacity:1" fill="#3b5c7b" d="M 237.5,400.5 C 241.138,399.737 242.638,401.07 242,404.5C 237.415,406.413 235.915,405.079 237.5,400.5 Z"/></g>
</svg>
